<?xml version="1.0" encoding="UTF-8"?>
<svg id="Layer_1" xmlns="http://www.w3.org/2000/svg" version="1.1" viewBox="0 0 970 970">
  <!-- Generator: Adobe Illustrator 30.5.1, SVG Export Plug-In . SVG Version: 2.1.4 Build 3)  -->
  <defs>
    <style>
      .st0 {
        fill: none;
        stroke: #808285;
        stroke-miterlimit: 10;
      }

      .st1 {
        fill: #ed1c24;
      }

      .st2 {
        fill: #00aeef;
      }

      .st3 {
        fill: #fff;
      }

      .st4 {
        fill: #39b54a;
      }

      .st5 {
        fill: #27aae1;
      }

      .st6 {
        fill: #21409a;
      }

      .st7 {
        fill: #fff200;
      }
    </style>
  </defs>
  <rect class="st6" x="0" y="0" width="970" height="970" rx="25.87" ry="25.87"/>
  <g>
    <g>
      <g>
        <rect class="st3" x="19.55" y="587.66" width="362.87" height="362.87" rx="17.05" ry="17.05"/>
        <path class="st1" d="M365.37,590.66c7.74,0,14.05,6.3,14.05,14.05v328.77c0,7.74-6.3,14.05-14.05,14.05H36.6c-7.74,0-14.05-6.3-14.05-14.05v-328.77c0-7.74,6.3-14.05,14.05-14.05h328.77M365.37,584.66H36.6c-11.07,0-20.05,8.97-20.05,20.05v328.77c0,11.07,8.97,20.05,20.05,20.05h328.77c11.07,0,20.05-8.97,20.05-20.05v-328.77c0-11.07-8.97-20.05-20.05-20.05h0Z"/>
      </g>
      <g>
        <circle class="st1" cx="130.87" cy="699.95" r="48.19"/>
        <circle class="st1" cx="269.56" cy="699.95" r="48.19"/>
        <circle class="st1" cx="130.87" cy="837.79" r="48.19"/>
        <circle class="st1" cx="269.56" cy="837.79" r="48.19"/>
      </g>
    </g>
    <g>
      <g>
        <path class="st3" d="M604.78,587.65h328.78c9.41,0,17.04,7.64,17.04,17.04v328.77c0,9.41-7.64,17.05-17.05,17.05h-328.77c-9.41,0-17.04-7.64-17.04-17.04v-328.78c0-9.41,7.64-17.04,17.04-17.04Z"/>
        <path class="st5" d="M933.55,590.65c7.74,0,14.05,6.3,14.05,14.05v328.77c0,7.74-6.3,14.05-14.05,14.05h-328.77c-7.74,0-14.05-6.3-14.05-14.05v-328.77c0-7.74,6.3-14.05,14.05-14.05h328.77M933.55,584.65h-328.77c-11.07,0-20.05,8.97-20.05,20.05v328.77c0,11.07,8.97,20.05,20.05,20.05h328.77c11.07,0,20.05-8.97,20.05-20.05v-328.77c0-11.07-8.97-20.05-20.05-20.05h0Z"/>
      </g>
      <g>
        <circle class="st5" cx="699.04" cy="699.94" r="48.19"/>
        <circle class="st5" cx="837.74" cy="699.94" r="48.19"/>
        <circle class="st5" cx="699.04" cy="837.77" r="48.19"/>
        <circle class="st5" cx="837.74" cy="837.77" r="48.19"/>
      </g>
    </g>
    <g>
      <g>
        <rect class="st3" x="19.55" y="19.53" width="362.87" height="362.87" rx="17.05" ry="17.05"/>
        <path class="st4" d="M365.37,22.53c7.74,0,14.05,6.3,14.05,14.05v328.77c0,7.74-6.3,14.05-14.05,14.05H36.6c-7.74,0-14.05-6.3-14.05-14.05V36.57c0-7.74,6.3-14.05,14.05-14.05h328.77M365.37,16.53H36.6c-11.07,0-20.05,8.97-20.05,20.05v328.77c0,11.07,8.97,20.05,20.05,20.05h328.77c11.07,0,20.05-8.97,20.05-20.05V36.57c0-11.07-8.97-20.05-20.05-20.05h0Z"/>
      </g>
      <g>
        <circle class="st4" cx="130.87" cy="131.82" r="48.19"/>
        <circle class="st4" cx="269.56" cy="131.82" r="48.19"/>
        <circle class="st4" cx="130.87" cy="269.65" r="48.19"/>
        <circle class="st4" cx="269.56" cy="269.65" r="48.19"/>
      </g>
    </g>
    <g>
      <g>
        <path class="st3" d="M604.78,19.51h328.77c9.41,0,17.05,7.64,17.05,17.05v328.77c0,9.41-7.64,17.05-17.05,17.05h-328.77c-9.41,0-17.05-7.64-17.05-17.05V36.55c0-9.41,7.64-17.04,17.04-17.04Z"/>
        <path class="st7" d="M933.55,22.51c7.74,0,14.05,6.3,14.05,14.05v328.77c0,7.74-6.3,14.05-14.05,14.05h-328.77c-7.74,0-14.05-6.3-14.05-14.05V36.56c0-7.74,6.3-14.05,14.05-14.05h328.77M933.55,16.51h-328.77c-11.07,0-20.05,8.97-20.05,20.05v328.77c0,11.07,8.97,20.05,20.05,20.05h328.77c11.07,0,20.05-8.97,20.05-20.05V36.56c0-11.07-8.97-20.05-20.05-20.05h0Z"/>
      </g>
      <g>
        <circle class="st7" cx="699.04" cy="131.8" r="48.19"/>
        <circle class="st7" cx="837.74" cy="131.8" r="48.19"/>
        <circle class="st7" cx="699.04" cy="269.64" r="48.19"/>
        <circle class="st7" cx="837.74" cy="269.64" r="48.19"/>
      </g>
    </g>
    <g>
      <g>
        <rect class="st3" x="330.56" y="520.64" width="54.66" height="54.66" rx="5.68" ry="5.68"/>
        <rect class="st3" x="267.67" y="520.64" width="54.66" height="54.66" rx="5.68" ry="5.68"/>
        <rect class="st3" x="204.78" y="520.64" width="54.66" height="54.66" rx="5.68" ry="5.68"/>
        <rect class="st3" x="141.89" y="520.64" width="54.66" height="54.66" rx="5.68" ry="5.68"/>
        <rect class="st3" x="79" y="520.64" width="54.66" height="54.66" rx="5.68" ry="5.68"/>
        <rect class="st3" x="16.11" y="520.64" width="54.66" height="54.66" rx="5.68" ry="5.68"/>
      </g>
      <g>
        <rect class="st4" x="330.56" y="457.68" width="54.66" height="54.66" rx="5.68" ry="5.68"/>
        <rect class="st4" x="267.67" y="457.68" width="54.66" height="54.66" rx="5.68" ry="5.68"/>
        <rect class="st4" x="204.78" y="457.68" width="54.66" height="54.66" rx="5.68" ry="5.68"/>
        <rect class="st4" x="141.89" y="457.68" width="54.66" height="54.66" rx="5.68" ry="5.68"/>
        <rect class="st4" x="79" y="457.68" width="54.66" height="54.66" rx="5.68" ry="5.68"/>
        <rect class="st3" x="16.11" y="457.68" width="54.66" height="54.66" rx="5.68" ry="5.68"/>
      </g>
      <g>
        <rect class="st3" x="330.56" y="394.7" width="54.66" height="54.66" rx="5.68" ry="5.68"/>
        <rect class="st3" x="267.67" y="394.7" width="54.66" height="54.66" rx="5.68" ry="5.68"/>
        <rect class="st3" x="204.78" y="394.7" width="54.66" height="54.66" rx="5.68" ry="5.68"/>
        <rect class="st3" x="141.89" y="394.7" width="54.66" height="54.66" rx="5.68" ry="5.68"/>
        <rect class="st4" x="79" y="394.7" width="54.66" height="54.66" rx="5.68" ry="5.68"/>
        <rect class="st3" x="16.11" y="394.7" width="54.66" height="54.66" rx="5.68" ry="5.68"/>
      </g>
    </g>
    <g>
      <g>
        <rect class="st3" x="899.22" y="520.64" width="54.66" height="54.66" rx="5.68" ry="5.68"/>
        <rect class="st2" x="836.33" y="520.64" width="54.66" height="54.66" rx="5.68" ry="5.68"/>
        <rect class="st3" x="773.45" y="520.64" width="54.66" height="54.66" rx="5.68" ry="5.68"/>
        <rect class="st3" x="710.56" y="520.64" width="54.66" height="54.66" rx="5.68" ry="5.68"/>
        <rect class="st3" x="647.67" y="520.64" width="54.66" height="54.66" rx="5.68" ry="5.68"/>
        <rect class="st3" x="584.78" y="520.64" width="54.66" height="54.66" rx="5.68" ry="5.68"/>
      </g>
      <g>
        <rect class="st3" x="899.22" y="457.68" width="54.66" height="54.66" rx="5.68" ry="5.68"/>
        <rect class="st2" x="836.33" y="457.68" width="54.66" height="54.66" rx="5.68" ry="5.68"/>
        <rect class="st2" x="773.45" y="457.68" width="54.66" height="54.66" rx="5.68" ry="5.68"/>
        <rect class="st2" x="710.56" y="457.68" width="54.66" height="54.66" rx="5.68" ry="5.68"/>
        <rect class="st2" x="647.67" y="457.68" width="54.66" height="54.66" rx="5.68" ry="5.68"/>
        <rect class="st2" x="584.78" y="457.68" width="54.66" height="54.66" rx="5.68" ry="5.68"/>
      </g>
      <g>
        <rect class="st3" x="899.22" y="394.7" width="54.66" height="54.66" rx="5.68" ry="5.68"/>
        <rect class="st3" x="836.33" y="394.7" width="54.66" height="54.66" rx="5.68" ry="5.68"/>
        <rect class="st3" x="773.45" y="394.7" width="54.66" height="54.66" rx="5.68" ry="5.68"/>
        <rect class="st3" x="710.56" y="394.7" width="54.66" height="54.66" rx="5.68" ry="5.68"/>
        <rect class="st3" x="647.67" y="394.7" width="54.66" height="54.66" rx="5.68" ry="5.68"/>
        <rect class="st3" x="584.78" y="394.7" width="54.66" height="54.66" rx="5.68" ry="5.68"/>
      </g>
    </g>
    <g>
      <g>
        <rect class="st3" x="394.79" y="330.56" width="54.66" height="54.66" rx="5.68" ry="5.68"/>
        <rect class="st3" x="394.79" y="267.67" width="54.66" height="54.66" rx="5.68" ry="5.68"/>
        <rect class="st3" x="394.79" y="204.78" width="54.66" height="54.66" rx="5.68" ry="5.68"/>
        <rect class="st3" x="394.79" y="141.89" width="54.66" height="54.66" rx="5.68" ry="5.68"/>
        <rect class="st3" x="394.84" y="79" width="54.66" height="54.66" rx="5.68" ry="5.68"/>
        <rect class="st3" x="394.79" y="16.11" width="54.66" height="54.66" rx="5.68" ry="5.68"/>
      </g>
      <g>
        <rect class="st7" x="457.75" y="330.56" width="54.66" height="54.66" rx="5.68" ry="5.68"/>
        <rect class="st7" x="457.75" y="267.67" width="54.66" height="54.66" rx="5.68" ry="5.68"/>
        <rect class="st7" x="457.75" y="204.78" width="54.66" height="54.66" rx="5.68" ry="5.68"/>
        <rect class="st7" x="457.75" y="141.89" width="54.66" height="54.66" rx="5.68" ry="5.68"/>
        <rect class="st7" x="457.75" y="79" width="54.66" height="54.66" rx="5.68" ry="5.68"/>
        <rect class="st3" x="457.75" y="16.11" width="54.66" height="54.66" rx="5.68" ry="5.68"/>
      </g>
      <g>
        <rect class="st3" x="520.72" y="330.56" width="54.66" height="54.66" rx="5.68" ry="5.68"/>
        <rect class="st3" x="520.72" y="267.67" width="54.66" height="54.66" rx="5.68" ry="5.68"/>
        <rect class="st3" x="520.72" y="204.78" width="54.66" height="54.66" rx="5.68" ry="5.68"/>
        <rect class="st3" x="520.72" y="141.89" width="54.66" height="54.66" rx="5.68" ry="5.68"/>
        <rect class="st7" x="520.72" y="79" width="54.66" height="54.66" rx="5.68" ry="5.68"/>
        <rect class="st3" x="520.72" y="16.11" width="54.66" height="54.66" rx="5.68" ry="5.68"/>
      </g>
    </g>
    <g>
      <g>
        <rect class="st3" x="394.79" y="899.22" width="54.66" height="54.66" rx="5.68" ry="5.68"/>
        <rect class="st1" x="394.79" y="836.33" width="54.66" height="54.66" rx="5.68" ry="5.68"/>
        <rect class="st3" x="394.79" y="773.45" width="54.66" height="54.66" rx="5.68" ry="5.68"/>
        <rect class="st3" x="394.79" y="710.56" width="54.66" height="54.66" rx="5.68" ry="5.68"/>
        <rect class="st3" x="394.79" y="647.67" width="54.66" height="54.66" rx="5.68" ry="5.68"/>
        <rect class="st3" x="394.79" y="584.78" width="54.66" height="54.66" rx="5.68" ry="5.68"/>
      </g>
      <g>
        <rect class="st3" x="457.75" y="899.22" width="54.66" height="54.66" rx="5.68" ry="5.68"/>
        <rect class="st1" x="457.75" y="836.33" width="54.66" height="54.66" rx="5.68" ry="5.68"/>
        <rect class="st1" x="457.75" y="773.45" width="54.66" height="54.66" rx="5.68" ry="5.68"/>
        <rect class="st1" x="457.75" y="710.56" width="54.66" height="54.66" rx="5.68" ry="5.68"/>
        <rect class="st1" x="457.75" y="647.67" width="54.66" height="54.66" rx="5.68" ry="5.68"/>
        <rect class="st1" x="457.75" y="584.78" width="54.66" height="54.66" rx="5.68" ry="5.68"/>
      </g>
      <g>
        <rect class="st3" x="520.72" y="899.22" width="54.66" height="54.66" rx="5.68" ry="5.68"/>
        <rect class="st3" x="520.72" y="836.33" width="54.66" height="54.66" rx="5.68" ry="5.68"/>
        <rect class="st3" x="520.72" y="773.45" width="54.66" height="54.66" rx="5.68" ry="5.68"/>
        <rect class="st3" x="520.72" y="710.56" width="54.66" height="54.66" rx="5.68" ry="5.68"/>
        <rect class="st3" x="520.72" y="647.67" width="54.66" height="54.66" rx="5.68" ry="5.68"/>
        <rect class="st3" x="520.72" y="584.78" width="54.66" height="54.66" rx="5.68" ry="5.68"/>
      </g>
    </g>
    <g>
      <path class="st7" d="M573.74,396.48c-1.03-1.04-2.46-1.68-4.04-1.68h-169.19c-1.58,0-3.01.64-4.05,1.68l88.64,88.64,88.65-88.65Z"/>
      <path class="st4" d="M396.45,396.49c-1.03,1.03-1.66,2.46-1.66,4.03v169.19c0,1.58.64,3.01,1.68,4.04l88.63-88.63-88.64-88.64Z"/>
      <path class="st2" d="M575.41,569.71v-169.19c0-1.58-.64-3-1.67-4.03l-88.65,88.65,88.63,88.63c1.04-1.03,1.68-2.47,1.68-4.05Z"/>
      <path class="st1" d="M396.47,573.76c1.03,1.03,2.46,1.67,4.03,1.67h169.19c1.57,0,3-.64,4.03-1.66l-88.63-88.63-88.63,88.63Z"/>
    </g>
    <circle class="st0" cx="106.28" cy="547.99" r="15.52"/>
    <circle class="st0" cx="863.09" cy="422.47" r="15.52"/>
    <circle class="st0" cx="548.27" cy="865.28" r="15.52"/>
    <circle class="st0" cx="422.17" cy="107.11" r="15.52"/>
  </g>
</svg>