<?xml version="1.0" encoding="UTF-8"?>
<svg id="Layer_1" xmlns="http://www.w3.org/2000/svg" xmlns:xlink="http://www.w3.org/1999/xlink" version="1.1" viewBox="0 0 104 104">
  <!-- Generator: Adobe Illustrator 30.5.1, SVG Export Plug-In . SVG Version: 2.1.4 Build 3)  -->
  <defs>
    <style>
      .st0 {
        fill: none;
      }

      .st1 {
        fill: url(#radial-gradient);
      }

      .st2 {
        fill: #ffcf3f;
      }

      .st3 {
        fill: url(#radial-gradient3);
        isolation: isolate;
        opacity: .5;
      }

      .st4 {
        opacity: .8;
      }

      .st5 {
        fill: url(#radial-gradient1);
      }

      .st6 {
        fill: url(#radial-gradient2);
      }

      .st7 {
        fill: url(#radial-gradient4);
      }

      .st8 {
        fill: #ff8a1f;
      }

      .st9 {
        clip-path: url(#clippath);
      }
    </style>
    <radialGradient id="radial-gradient" cx="77.84" cy="552.38" fx="77.84" fy="552.38" r=".5" gradientTransform="translate(-8043.5773 57499.7411) scale(104 -104)" gradientUnits="userSpaceOnUse">
      <stop offset=".7" stop-color="#ffb84a" stop-opacity="0"/>
      <stop offset=".84" stop-color="#ffb84a" stop-opacity=".45"/>
      <stop offset="1" stop-color="#ff7a1f" stop-opacity="0"/>
    </radialGradient>
    <radialGradient id="radial-gradient1" cx="76.65" cy="552.29" fx="76.65" fy="552.29" r=".72" gradientTransform="translate(-7010.4033 50849.5422) scale(92 -92)" gradientUnits="userSpaceOnUse">
      <stop offset="0" stop-color="#ffd23f"/>
      <stop offset=".4" stop-color="#e2451f"/>
      <stop offset="1" stop-color="#3a0a05"/>
    </radialGradient>
    <clipPath id="clippath">
      <circle class="st0" cx="52" cy="52" r="52"/>
    </clipPath>
    <radialGradient id="radial-gradient2" cx="76.62" cy="552.33" fx="76.62" fy="552.33" r=".75" gradientTransform="translate(-7010.4033 50849.5422) scale(92 -92)" gradientUnits="userSpaceOnUse">
      <stop offset="0" stop-color="#fff" stop-opacity=".55"/>
      <stop offset=".35" stop-color="#fff" stop-opacity=".12"/>
      <stop offset=".62" stop-color="#000" stop-opacity="0"/>
      <stop offset="1" stop-color="#000" stop-opacity=".78"/>
    </radialGradient>
    <radialGradient id="radial-gradient3" cx="76.61" cy="552.33" fx="76.61" fy="552.33" r=".78" gradientTransform="translate(-7010.4033 50849.5422) scale(92 -92)" gradientUnits="userSpaceOnUse">
      <stop offset="0" stop-color="#000" stop-opacity="0"/>
      <stop offset=".55" stop-color="#000" stop-opacity="0"/>
      <stop offset="1" stop-color="#000" stop-opacity=".62"/>
    </radialGradient>
    <radialGradient id="radial-gradient4" cx="76.77" cy="552.15" fx="76.77" fy="552.15" r=".5" gradientTransform="translate(-7010.4033 50849.5422) scale(92 -92)" gradientUnits="userSpaceOnUse">
      <stop offset="0" stop-color="#fff" stop-opacity="0"/>
      <stop offset=".86" stop-color="#fff" stop-opacity="0"/>
      <stop offset="1" stop-color="#fff" stop-opacity=".4"/>
    </radialGradient>
  </defs>
  <circle class="st1" cx="52" cy="52" r="52"/>
  <circle class="st5" cx="52" cy="52" r="46"/>
  <g class="st9">
    <g class="st4">
      <path class="st2" d="M24,34c9.33,4,11.33,10,6,18-8,2.67-13.33.67-16-6-1.33-6.67,2-10.67,10-12Z"/>
      <path class="st8" d="M60,58c10.67,1.33,14.67,6.67,12,16-6.67,5.33-13.33,4.67-20-2-2.67-8,0-12.67,8-14Z"/>
      <path class="st2" d="M34,68c6.67,0,9.33,3.33,8,10-5.33,2.67-9.33,2-12-2-1.33-4,0-6.67,4-8Z"/>
      <path class="st8" d="M66,32c5.33,2.67,6,6,2,10-5.33,0-8-2-8-6,.67-3.33,2.67-4.67,6-4Z"/>
    </g>
  </g>
  <circle class="st6" cx="52" cy="52" r="46"/>
  <circle class="st3" cx="52" cy="52" r="46"/>
  <circle class="st7" cx="52" cy="52" r="46"/>
</svg>