<?xml version="1.0" encoding="UTF-8"?>
<svg id="Layer_1" xmlns="http://www.w3.org/2000/svg" xmlns:xlink="http://www.w3.org/1999/xlink" version="1.1" viewBox="0 0 1511.07 509.69">
  <!-- Generator: Adobe Illustrator 30.5.1, SVG Export Plug-In . SVG Version: 2.1.4 Build 3)  -->
  <defs>
    <style>
      .st0 {
        fill: #f3f4f5;
      }

      .st1 {
        fill: url(#linear-gradient2);
      }

      .st2 {
        fill: url(#linear-gradient1);
      }

      .st3 {
        fill: url(#linear-gradient9);
      }

      .st4 {
        fill: url(#linear-gradient3);
      }

      .st5 {
        fill: url(#linear-gradient6);
      }

      .st6 {
        fill: url(#linear-gradient8);
      }

      .st7 {
        fill: url(#linear-gradient7);
      }

      .st8 {
        fill: url(#linear-gradient5);
      }

      .st9 {
        fill: url(#linear-gradient4);
      }

      .st10 {
        fill: url(#linear-gradient10);
      }

      .st11 {
        fill: url(#linear-gradient);
      }

      .st12 {
        fill: #c7c8ca;
      }

      .st13 {
        fill: #a4a5a7;
      }

      .st14 {
        fill: #535254;
      }
    </style>
    <linearGradient id="linear-gradient" x1="1358.92" y1="8001.78" x2="514.85" y2="8806" gradientTransform="translate(0 8388.5204) scale(1 -1)" gradientUnits="userSpaceOnUse">
      <stop offset="0" stop-color="#b6b8ba"/>
      <stop offset="1" stop-color="#f3f4f5"/>
    </linearGradient>
    <linearGradient id="linear-gradient1" x1="500.38" y1="417.73" x2="500.38" y2="429.7" gradientUnits="userSpaceOnUse">
      <stop offset="0" stop-color="#fff"/>
      <stop offset="1" stop-color="#ee3931"/>
    </linearGradient>
    <linearGradient id="linear-gradient2" x1="500.38" y1="-478.36" x2="500.38" y2="-466.39" gradientTransform="translate(0 -61.76) scale(1 -1)" xlink:href="#linear-gradient1"/>
    <linearGradient id="linear-gradient3" x1="416.14" y1="417.52" x2="416.14" y2="429.49" xlink:href="#linear-gradient1"/>
    <linearGradient id="linear-gradient4" x1="416.14" y1="-478.15" x2="416.14" y2="-466.18" gradientTransform="translate(0 -61.76) scale(1 -1)" xlink:href="#linear-gradient1"/>
    <linearGradient id="linear-gradient5" x1="438.63" y1="408.4" x2="438.63" y2="431.45" gradientUnits="userSpaceOnUse">
      <stop offset="0" stop-color="#fff"/>
      <stop offset="1" stop-color="#000"/>
    </linearGradient>
    <linearGradient id="linear-gradient6" x1="514.38" y1="402.11" x2="514.38" y2="425.18" xlink:href="#linear-gradient1"/>
    <linearGradient id="linear-gradient7" x1="355.76" y1="151.75" x2="422.45" y2="367.44" xlink:href="#linear-gradient5"/>
    <linearGradient id="linear-gradient8" x1="898.67" y1="493.96" x2="898.67" y2="203.83" gradientUnits="userSpaceOnUse">
      <stop offset="0" stop-color="#394fa1"/>
      <stop offset="1" stop-color="#2db8e5"/>
    </linearGradient>
    <linearGradient id="linear-gradient9" x1="791.47" y1="170.32" x2="811.59" y2="422.95" xlink:href="#linear-gradient8"/>
    <linearGradient id="linear-gradient10" x1="722.05" y1="166.17" x2="736.91" y2="393.98" gradientUnits="userSpaceOnUse">
      <stop offset="0" stop-color="#f478c4"/>
      <stop offset="1" stop-color="#cb007b"/>
    </linearGradient>
  </defs>
  <path class="st11" d="M1493.43,5.67c-45.43-48.24-392.05,226.43-797.36,258.79,339.97,50.63,643.99-7.36,767-39.1,1.33-.59,2.65-1.18,3.96-1.76,0,0,78.01-163.12,26.4-217.92Z"/>
  <g>
    <g>
      <rect class="st12" x="28.97" y="399.15" width="92.68" height="14.53"/>
      <rect class="st0" x="28.97" y="402.6" width="92.68" height="2.5"/>
      <rect class="st13" x="28.97" y="408.47" width="92.68" height="2.5"/>
    </g>
    <g>
      <path class="st14" d="M35.14,406.42c0,.94-.77,1.71-1.71,1.71s-1.71-.76-1.71-1.71.77-1.71,1.71-1.71,1.71.76,1.71,1.71Z"/>
      <path class="st14" d="M45.27,406.42c0,.94-.77,1.71-1.71,1.71s-1.71-.76-1.71-1.71.77-1.71,1.71-1.71,1.71.76,1.71,1.71Z"/>
      <path class="st14" d="M55.4,406.42c0,.94-.77,1.71-1.71,1.71s-1.71-.77-1.71-1.71.77-1.71,1.71-1.71,1.71.76,1.71,1.71Z"/>
      <path class="st14" d="M65.54,406.42c0,.94-.77,1.71-1.71,1.71s-1.71-.77-1.71-1.71.77-1.71,1.71-1.71,1.71.76,1.71,1.71Z"/>
      <path class="st14" d="M75.67,406.42c0,.94-.77,1.71-1.71,1.71s-1.71-.77-1.71-1.71.77-1.71,1.71-1.71,1.71.76,1.71,1.71Z"/>
      <path class="st14" d="M85.8,406.42c0,.94-.77,1.71-1.71,1.71s-1.71-.77-1.71-1.71.77-1.71,1.71-1.71,1.71.76,1.71,1.71Z"/>
      <path class="st14" d="M95.94,406.42c0,.94-.77,1.71-1.71,1.71s-1.71-.77-1.71-1.71.77-1.71,1.71-1.71,1.71.76,1.71,1.71Z"/>
    </g>
    <g>
      <g>
        <path class="st14" d="M40.53,401.69c0,.94-.77,1.71-1.71,1.71s-1.71-.76-1.71-1.71.76-1.71,1.71-1.71,1.71.77,1.71,1.71Z"/>
        <path class="st14" d="M50.66,401.69c0,.94-.77,1.71-1.71,1.71s-1.71-.76-1.71-1.71.76-1.71,1.71-1.71,1.71.77,1.71,1.71Z"/>
        <path class="st14" d="M60.79,401.69c0,.94-.77,1.71-1.71,1.71s-1.71-.76-1.71-1.71.76-1.71,1.71-1.71,1.71.77,1.71,1.71Z"/>
        <path class="st14" d="M70.93,401.69c0,.94-.77,1.71-1.71,1.71s-1.71-.76-1.71-1.71.76-1.71,1.71-1.71,1.71.77,1.71,1.71Z"/>
        <path class="st14" d="M81.06,401.69c0,.94-.77,1.71-1.71,1.71s-1.71-.76-1.71-1.71.76-1.71,1.71-1.71,1.71.77,1.71,1.71Z"/>
        <path class="st14" d="M91.19,401.69c0,.94-.77,1.71-1.71,1.71s-1.71-.76-1.71-1.71.76-1.71,1.71-1.71,1.71.77,1.71,1.71Z"/>
        <path class="st14" d="M101.32,401.69c0,.94-.77,1.71-1.71,1.71s-1.71-.76-1.71-1.71.77-1.71,1.71-1.71,1.71.77,1.71,1.71Z"/>
      </g>
      <g>
        <path class="st14" d="M40.53,411.15c0,.94-.77,1.71-1.71,1.71s-1.71-.76-1.71-1.71.76-1.71,1.71-1.71,1.71.76,1.71,1.71Z"/>
        <path class="st14" d="M50.66,411.15c0,.94-.77,1.71-1.71,1.71s-1.71-.76-1.71-1.71.76-1.71,1.71-1.71,1.71.76,1.71,1.71Z"/>
        <path class="st14" d="M60.79,411.15c0,.94-.77,1.71-1.71,1.71s-1.71-.76-1.71-1.71.76-1.71,1.71-1.71,1.71.76,1.71,1.71Z"/>
        <path class="st14" d="M70.93,411.15c0,.94-.77,1.71-1.71,1.71s-1.71-.77-1.71-1.71.76-1.71,1.71-1.71,1.71.76,1.71,1.71Z"/>
        <path class="st14" d="M81.06,411.15c0,.94-.77,1.71-1.71,1.71s-1.71-.77-1.71-1.71.76-1.71,1.71-1.71,1.71.76,1.71,1.71Z"/>
        <path class="st14" d="M91.19,411.15c0,.94-.77,1.71-1.71,1.71s-1.71-.77-1.71-1.71.76-1.71,1.71-1.71,1.71.76,1.71,1.71Z"/>
        <path class="st14" d="M101.32,411.15c0,.94-.77,1.71-1.71,1.71s-1.71-.77-1.71-1.71.77-1.71,1.71-1.71,1.71.76,1.71,1.71Z"/>
      </g>
    </g>
    <path class="st14" d="M30.03,406.43c0,4.02-.47,7.28-1.04,7.28s-1.04-3.26-1.04-7.28.47-7.27,1.04-7.27,1.04,3.26,1.04,7.27Z"/>
  </g>
  <g>
    <polygon class="st2" points="488.93 421.9 504.46 421.9 511.82 428.75 504.06 428.87 488.93 421.9"/>
    <polygon class="st1" points="488.93 412.43 504.46 412.43 511.82 405.58 504.06 405.46 488.93 412.43"/>
    <polygon class="st4" points="404.69 421.69 420.22 421.69 427.58 428.54 419.82 428.67 404.69 421.69"/>
    <polygon class="st9" points="404.69 412.22 420.22 412.22 427.58 405.37 419.82 405.25 404.69 412.22"/>
    <path class="st8" d="M524.86,410.16h-128.12c-26.72.3-42.22,5.81-44.34,6.61v.2c2.15.81,18.04,6.46,45.42,6.62h127.04v-13.43Z"/>
    <rect class="st5" x="511.18" y="410.15" width="6.41" height="13.44"/>
  </g>
  <path class="st7" d="M700.62,277.1c-55.09,4.4-111.26,4.32-167.91-1.65-161.43-17.03-315.43,38.71-418.67,84.56l67.32,26.09s310.97-16.99,519.26-109Z"/>
  <path class="st6" d="M406.75,363.97s49.69,22.76,61.96,36.02c12.28,13.26,26.06,35.64,26.06,35.64,0,0,220.07-21.08,343,42.15,122.93,63.23,423.74,38.4,543.63-128.11,119.9-166.5-974.66,14.29-974.66,14.29Z"/>
  <path class="st3" d="M818.04,342.89c-228.24-1.97-523.33,39.31-679.03,64.1,128.32,5,457.28-39.18,631.98-9.31,505.4,86.41,567.18,8.45,608.6-44.26l42.5-67.44,44.93-62.39c-110.47,49.62-327.52,122.08-648.98,119.3Z"/>
  <path class="st10" d="M696.07,264.46c-208.29,92.01-519.26,109-519.26,109l-67.32-26.09c-50.12,22.26-88.27,42.19-109.49,50.33l112.43.02.07,20.8c158.85-25.34,481.25-77.56,705.54-75.62,317.67,2.75,533.37-67.98,645.02-117.54-122.56,27.88-427.95,83.37-767,39.1Z"/>
</svg>