<?xml version="1.0" encoding="UTF-8"?>
<svg id="Layer_1" xmlns="http://www.w3.org/2000/svg" xmlns:xlink="http://www.w3.org/1999/xlink" version="1.1" viewBox="0 0 1191.08 536.18">
  <!-- Generator: Adobe Illustrator 30.5.1, SVG Export Plug-In . SVG Version: 2.1.4 Build 3)  -->
  <defs>
    <style>
      .st0, .st1 {
        fill: none;
      }

      .st2 {
        fill: #f3f4f5;
      }

      .st3 {
        fill: url(#linear-gradient2);
      }

      .st4 {
        fill: url(#linear-gradient1);
      }

      .st5 {
        fill: url(#linear-gradient9);
      }

      .st6 {
        fill: url(#linear-gradient3);
      }

      .st7 {
        fill: url(#linear-gradient6);
      }

      .st8 {
        fill: url(#linear-gradient8);
      }

      .st9 {
        fill: url(#linear-gradient7);
      }

      .st10 {
        fill: url(#linear-gradient5);
      }

      .st11 {
        fill: url(#linear-gradient4);
      }

      .st12 {
        fill: url(#linear-gradient31);
      }

      .st13 {
        fill: url(#linear-gradient30);
      }

      .st14 {
        fill: url(#linear-gradient32);
      }

      .st15 {
        fill: url(#linear-gradient33);
      }

      .st16 {
        fill: url(#linear-gradient28);
      }

      .st17 {
        fill: url(#linear-gradient29);
      }

      .st18 {
        fill: url(#linear-gradient18);
      }

      .st19 {
        fill: url(#linear-gradient13);
      }

      .st20 {
        fill: url(#linear-gradient12);
      }

      .st21 {
        fill: url(#linear-gradient15);
      }

      .st22 {
        fill: url(#linear-gradient16);
      }

      .st23 {
        fill: url(#linear-gradient11);
      }

      .st24 {
        fill: url(#linear-gradient10);
      }

      .st25 {
        fill: url(#linear-gradient17);
      }

      .st26 {
        fill: url(#linear-gradient14);
      }

      .st27 {
        fill: url(#linear-gradient19);
      }

      .st28 {
        fill: url(#linear-gradient23);
      }

      .st29 {
        fill: url(#linear-gradient22);
      }

      .st30 {
        fill: url(#linear-gradient24);
      }

      .st31 {
        fill: url(#linear-gradient25);
      }

      .st32 {
        fill: url(#linear-gradient21);
      }

      .st33 {
        fill: url(#linear-gradient20);
      }

      .st34 {
        fill: url(#linear-gradient27);
      }

      .st35 {
        fill: url(#linear-gradient26);
      }

      .st36 {
        fill: url(#linear-gradient);
      }

      .st37 {
        fill: #c7c8ca;
      }

      .st38 {
        fill: #a4a5a7;
      }

      .st1 {
        opacity: .6;
        stroke: #a8dbf2;
        stroke-miterlimit: 10;
        stroke-width: 2px;
      }

      .st39 {
        fill: #535254;
      }

      .st40 {
        fill: #332e20;
      }
    </style>
    <linearGradient id="linear-gradient" x1="-543.15" y1="-1107.27" x2="-709.67" y2="-1107.27" gradientTransform="translate(581.5098 1376) scale(-1 1)" gradientUnits="userSpaceOnUse">
      <stop offset="0" stop-color="#394fa1"/>
      <stop offset="1" stop-color="#2db8e5"/>
    </linearGradient>
    <linearGradient id="linear-gradient1" x1="-414.21" y1="-1107.27" x2="-588.86" y2="-1107.27" xlink:href="#linear-gradient"/>
    <linearGradient id="linear-gradient2" x1="738.42" y1="-1129.83" x2="-265.02" y2="-1129.83" gradientTransform="translate(581.5098 1376) scale(-1 1)" gradientUnits="userSpaceOnUse">
      <stop offset="0" stop-color="#f478c4"/>
      <stop offset="1" stop-color="#cb007b"/>
    </linearGradient>
    <linearGradient id="linear-gradient3" x1="738.42" y1="-1074.16" x2="-265.03" y2="-1074.16" xlink:href="#linear-gradient2"/>
    <linearGradient id="linear-gradient4" x1="-26.26" y1="-1203.9" x2="554.38" y2="-1203.9" xlink:href="#linear-gradient"/>
    <linearGradient id="linear-gradient5" x1="74.66" y1="-1354.09" x2="74.66" y2="-1134.09" xlink:href="#linear-gradient"/>
    <linearGradient id="linear-gradient6" x1="-387.07" y1="-948.59" x2="-355.58" y2="-1176.89" xlink:href="#linear-gradient"/>
    <linearGradient id="linear-gradient7" x1="-26.26" y1="-1000.08" x2="554.38" y2="-1000.08" xlink:href="#linear-gradient"/>
    <linearGradient id="linear-gradient8" x1="45.43" y1="-855.49" x2="84.03" y2="-1135.33" xlink:href="#linear-gradient"/>
    <linearGradient id="linear-gradient9" x1="70.49" y1="-1489.96" x2="-8.19" y2="-1241.95" gradientTransform="translate(581.5098 1376) scale(-1 1)" gradientUnits="userSpaceOnUse">
      <stop offset="0" stop-color="#fff"/>
      <stop offset="1" stop-color="#000"/>
    </linearGradient>
    <linearGradient id="linear-gradient10" x1="382.95" y1="-1390.84" x2="304.27" y2="-1142.82" xlink:href="#linear-gradient9"/>
    <linearGradient id="linear-gradient11" x1="794.13" y1="312.28" x2="794.13" y2="357.56" gradientTransform="matrix(1,0,0,1,0,0)" xlink:href="#linear-gradient"/>
    <linearGradient id="linear-gradient12" x1="831.1" y1="335.84" x2="831.1" y2="345.54" gradientUnits="userSpaceOnUse">
      <stop offset="0" stop-color="#fff"/>
      <stop offset="1" stop-color="#ee3931"/>
    </linearGradient>
    <linearGradient id="linear-gradient13" x1="831.1" y1="-358.95" x2="831.1" y2="-349.26" gradientTransform="translate(0 -24.02) scale(1 -1)" xlink:href="#linear-gradient12"/>
    <linearGradient id="linear-gradient14" x1="762.88" y1="335.68" x2="762.88" y2="345.37" xlink:href="#linear-gradient12"/>
    <linearGradient id="linear-gradient15" x1="762.88" y1="-358.78" x2="762.88" y2="-349.09" gradientTransform="translate(0 -24.02) scale(1 -1)" xlink:href="#linear-gradient12"/>
    <linearGradient id="linear-gradient16" x1="781.1" y1="328.29" x2="781.1" y2="346.95" gradientTransform="matrix(1,0,0,1,0,0)" xlink:href="#linear-gradient9"/>
    <linearGradient id="linear-gradient17" x1="842.44" y1="323.2" x2="842.44" y2="341.88" xlink:href="#linear-gradient12"/>
    <linearGradient id="linear-gradient18" x1="721.91" y1="359.24" x2="721.91" y2="404.51" gradientTransform="matrix(1,0,0,1,0,0)" xlink:href="#linear-gradient"/>
    <linearGradient id="linear-gradient19" x1="758.88" y1="382.8" x2="758.88" y2="392.5" xlink:href="#linear-gradient12"/>
    <linearGradient id="linear-gradient20" x1="758.88" y1="-405.91" x2="758.88" y2="-396.22" gradientTransform="translate(0 -24.02) scale(1 -1)" xlink:href="#linear-gradient12"/>
    <linearGradient id="linear-gradient21" x1="690.66" y1="382.63" x2="690.66" y2="392.33" xlink:href="#linear-gradient12"/>
    <linearGradient id="linear-gradient22" x1="690.66" y1="-405.74" x2="690.66" y2="-396.05" gradientTransform="translate(0 -24.02) scale(1 -1)" xlink:href="#linear-gradient12"/>
    <linearGradient id="linear-gradient23" x1="708.88" y1="375.25" x2="708.88" y2="393.91" gradientTransform="matrix(1,0,0,1,0,0)" xlink:href="#linear-gradient9"/>
    <linearGradient id="linear-gradient24" x1="770.22" y1="370.16" x2="770.22" y2="388.84" xlink:href="#linear-gradient12"/>
    <linearGradient id="linear-gradient25" x1="659.41" y1="408.14" x2="659.41" y2="453.42" gradientTransform="matrix(1,0,0,1,0,0)" xlink:href="#linear-gradient"/>
    <linearGradient id="linear-gradient26" x1="696.38" y1="431.7" x2="696.38" y2="441.4" xlink:href="#linear-gradient12"/>
    <linearGradient id="linear-gradient27" x1="696.38" y1="-454.81" x2="696.38" y2="-445.12" gradientTransform="translate(0 -24.02) scale(1 -1)" xlink:href="#linear-gradient12"/>
    <linearGradient id="linear-gradient28" x1="628.16" y1="431.53" x2="628.16" y2="441.23" xlink:href="#linear-gradient12"/>
    <linearGradient id="linear-gradient29" x1="628.16" y1="-454.64" x2="628.16" y2="-444.95" gradientTransform="translate(0 -24.02) scale(1 -1)" xlink:href="#linear-gradient12"/>
    <linearGradient id="linear-gradient30" x1="646.38" y1="424.15" x2="646.38" y2="442.81" gradientTransform="matrix(1,0,0,1,0,0)" xlink:href="#linear-gradient9"/>
    <linearGradient id="linear-gradient31" x1="707.72" y1="419.06" x2="707.72" y2="437.74" xlink:href="#linear-gradient12"/>
    <linearGradient id="linear-gradient32" x1="-678.73" y1="6618.83" x2="-678.73" y2="6859.13" gradientTransform="translate(2361.5567 9049.8452) rotate(160.0649) scale(1.1415 1.2769) skewX(-5.3638)" xlink:href="#linear-gradient"/>
    <linearGradient id="linear-gradient33" x1="1145.72" y1="767.6" x2="1145.72" y2="1007.9" gradientTransform="translate(2361.5567 -566.2094) rotate(-160.0649) scale(1.1415 -1.2769) skewX(-5.3638)" xlink:href="#linear-gradient"/>
  </defs>
  <g>
    <g>
      <rect class="st37" x="98.3" y="266.65" width="91.92" height="14.53" transform="translate(-5.32 2.87) rotate(-1.12)"/>
      <rect class="st2" x="98.35" y="275.24" width="91.92" height="2.49" transform="translate(-5.37 2.87) rotate(-1.12)"/>
      <rect class="st38" x="98.24" y="269.37" width="91.92" height="2.5" transform="translate(-5.26 2.87) rotate(-1.12)"/>
    </g>
    <g>
      <path class="st39" d="M104.48,274.69c-.02-.94-.8-1.69-1.74-1.67-.94.02-1.69.79-1.67,1.74.02.94.8,1.69,1.74,1.67.94-.02,1.69-.8,1.68-1.74Z"/>
      <path class="st39" d="M114.6,274.49c-.02-.94-.8-1.69-1.74-1.67-.94.02-1.69.8-1.67,1.74.02.94.8,1.69,1.74,1.67.94-.02,1.69-.8,1.67-1.74Z"/>
      <path class="st39" d="M124.73,274.3c-.02-.94-.8-1.69-1.74-1.67-.94.02-1.69.8-1.67,1.74.02.94.8,1.69,1.74,1.67.94-.02,1.69-.8,1.67-1.74Z"/>
      <path class="st39" d="M134.86,274.1c-.02-.94-.8-1.69-1.74-1.67-.94.02-1.69.8-1.67,1.74.02.94.8,1.69,1.74,1.67.94-.02,1.69-.8,1.67-1.74Z"/>
      <path class="st39" d="M144.99,273.9c-.02-.94-.8-1.69-1.74-1.67-.94.02-1.69.8-1.67,1.74.02.94.8,1.69,1.74,1.67.94-.02,1.69-.8,1.67-1.74Z"/>
      <path class="st39" d="M155.12,273.7c-.02-.94-.8-1.69-1.74-1.67-.94.02-1.69.8-1.67,1.74.02.94.8,1.69,1.74,1.67.94-.02,1.69-.8,1.67-1.74Z"/>
      <path class="st39" d="M165.25,273.5c-.02-.94-.8-1.69-1.74-1.67-.94.02-1.69.8-1.67,1.74.02.94.8,1.69,1.74,1.67.94-.02,1.69-.8,1.67-1.74Z"/>
    </g>
    <g>
      <g>
        <path class="st39" d="M109.95,279.31c-.02-.94-.8-1.69-1.74-1.67-.94.02-1.69.8-1.67,1.74.02.94.8,1.7,1.74,1.68.94-.02,1.69-.8,1.68-1.75Z"/>
        <path class="st39" d="M120.08,279.12c-.02-.94-.8-1.69-1.74-1.67-.94.02-1.69.8-1.67,1.74.02.94.8,1.7,1.74,1.68.94-.02,1.69-.8,1.67-1.74Z"/>
        <path class="st39" d="M130.21,278.92c-.02-.94-.8-1.69-1.74-1.67-.94.02-1.69.8-1.67,1.74.02.94.8,1.7,1.74,1.68.94-.02,1.69-.8,1.67-1.74Z"/>
        <path class="st39" d="M140.34,278.72c-.02-.94-.8-1.69-1.74-1.67-.94.02-1.69.8-1.67,1.74.02.94.8,1.7,1.74,1.68.94-.02,1.69-.8,1.67-1.74Z"/>
        <path class="st39" d="M150.47,278.52c-.02-.94-.8-1.69-1.74-1.67-.94.02-1.69.8-1.67,1.74.02.94.8,1.7,1.74,1.68.94-.02,1.69-.8,1.67-1.74Z"/>
        <path class="st39" d="M160.6,278.33c-.02-.94-.8-1.69-1.74-1.67-.94.02-1.69.8-1.67,1.74.02.94.8,1.7,1.74,1.68.94-.02,1.69-.8,1.67-1.74Z"/>
        <path class="st39" d="M170.73,278.13c-.02-.94-.8-1.69-1.74-1.67-.94.02-1.69.79-1.67,1.74.02.94.8,1.7,1.74,1.68.94-.02,1.69-.8,1.67-1.74Z"/>
      </g>
      <g>
        <path class="st39" d="M109.77,269.86c-.02-.94-.8-1.69-1.74-1.67-.94.02-1.69.8-1.67,1.74.02.94.8,1.69,1.74,1.67.94-.02,1.69-.8,1.68-1.74Z"/>
        <path class="st39" d="M119.9,269.66c-.02-.94-.8-1.69-1.74-1.67-.94.02-1.69.8-1.67,1.74.02.94.8,1.69,1.74,1.67.94-.02,1.69-.8,1.67-1.74Z"/>
        <path class="st39" d="M130.03,269.46c-.02-.94-.8-1.69-1.74-1.67-.94.02-1.69.8-1.67,1.74.02.94.8,1.69,1.74,1.67.94-.02,1.69-.8,1.67-1.74Z"/>
        <path class="st39" d="M140.16,269.26c-.02-.94-.8-1.69-1.74-1.67-.94.02-1.69.8-1.67,1.74.02.94.8,1.69,1.74,1.67.94-.02,1.69-.8,1.67-1.74Z"/>
        <path class="st39" d="M150.28,269.06c-.02-.94-.8-1.69-1.74-1.68-.94.02-1.69.8-1.67,1.74.02.94.8,1.69,1.74,1.67.94-.02,1.69-.8,1.67-1.74Z"/>
        <path class="st39" d="M160.41,268.87c-.02-.94-.8-1.69-1.74-1.68-.94.02-1.69.8-1.67,1.74.02.94.8,1.69,1.74,1.67.94-.02,1.69-.8,1.67-1.74Z"/>
        <path class="st39" d="M170.54,268.67c-.02-.94-.8-1.69-1.74-1.68-.94.02-1.69.8-1.67,1.74.02.94.8,1.69,1.74,1.67.94-.02,1.69-.8,1.67-1.74Z"/>
      </g>
    </g>
    <path class="st39" d="M99.37,274.78c-.08-4.02-.61-7.26-1.18-7.25-.58.01-.98,3.28-.9,7.29.08,4.01.61,7.26,1.19,7.25.57-.01.98-3.27.9-7.29Z"/>
  </g>
  <ellipse class="st36" cx="983.58" cy="268.73" rx="197.86" ry="223.38"/>
  <path class="st4" d="M983.58,34.46c35.33,0,68.58,9.98,97.7,27.55h-28.21c-3.26,0-5.92,2.65-5.92,5.92s2.65,5.92,5.92,5.92h45.69c9.04,6.82,17.58,14.43,25.54,22.73h-62.86c-3.26,0-5.92,2.65-5.92,5.92s2.65,5.92,5.92,5.92h73.43c6.58,7.91,12.68,16.33,18.25,25.21h-83.97c-3.26,0-5.92,2.65-5.92,5.92s2.66,5.92,5.92,5.92h90.9c4.67,8.5,8.87,17.35,12.56,26.52h-97.11c-3.26,0-5.92,2.65-5.92,5.92s2.66,5.92,5.92,5.92h101.52c2.98,8.65,5.53,17.54,7.59,26.66h-104.78c-3.26,0-5.92,2.65-5.92,5.92s2.65,5.92,5.92,5.92h107.17c1.49,8.39,2.58,16.94,3.26,25.62h-108.79c-3.26,0-5.92,2.65-5.92,5.92s2.65,5.92,5.92,5.92h109.45c.1,2.98.17,5.97.17,8.98,0,4.68-.14,9.33-.38,13.95h-110.51c-3.26,0-5.92,2.65-5.92,5.92s2.65,5.92,5.92,5.92h109.63c-.82,8.48-2.05,16.83-3.65,25.01h-109.57c-3.26,0-5.92,2.65-5.92,5.92s2.65,5.92,5.92,5.92h106.97c-2.18,8.89-4.81,17.57-7.87,26.01h-104.49c-3.26,0-5.92,2.65-5.92,5.92s2.66,5.92,5.92,5.92h99.86c-3.76,8.94-8.01,17.58-12.71,25.85h-93.83c-3.26,0-5.92,2.65-5.92,5.92s2.66,5.91,5.92,5.91h86.63c-5.61,8.65-11.72,16.86-18.3,24.55h-75.78c-3.26,0-5.92,2.65-5.92,5.92s2.66,5.92,5.92,5.92h64.9c-7.99,8.09-16.55,15.48-25.58,22.11h-47.03c-3.26,0-5.92,2.65-5.92,5.91s2.66,5.92,5.92,5.92h28.97c-28.41,16.49-60.62,25.8-94.76,25.8-114.6,0-207.51-104.89-207.51-234.27s92.91-234.27,207.51-234.27Z"/>
  <polygon class="st0" points="876.96 298.72 887.52 298.72 877.16 298.95 876.96 298.72"/>
  <polygon class="st0" points="876.96 249.3 877.16 249.07 887.52 249.3 876.96 249.3"/>
  <path class="st40" d="M876.96,249.3h10.56l126.23,2.81c.15,7.25.24,14.54.24,21.9s-.09,14.66-.24,21.9l-126.23,2.81h-10.56l-8.9-10.14H127.4c-2.72-3.87-4.32-8.59-4.32-13.68v-1.77c0-5.09,1.6-9.81,4.32-13.68h740.66l8.9-10.15Z"/>
  <path class="st39" d="M146.9,249.3h730.06l-8.9,10.15H127.4c4.31-6.13,11.44-10.15,19.5-10.15Z"/>
  <path class="st3" d="M150.32,232.9l726.84,16.16-.2.23-8.9,10.15H97s17.1-10.66,53.32-26.54Z"/>
  <path class="st39" d="M876.96,298.72H146.9c-8.06,0-15.19-4.01-19.5-10.14h740.66l8.9,10.14Z"/>
  <path class="st6" d="M127.4,288.57h740.66l8.9,10.14.2.23-726.84,16.17c-36.22-15.88-53.32-26.54-53.32-26.54h30.4Z"/>
  <path class="st39" d="M1013.69,249.3c.02.93.04,1.87.06,2.81l-126.23-2.81h126.17Z"/>
  <path class="st11" d="M1000.03,109.07l-122.87,140-726.84-16.16c104.95-46.02,370.59-135.93,847.03-137.77.93,4.57,1.82,9.22,2.68,13.93Z"/>
  <path class="st10" d="M987.46,53.68c3.62,13.01,6.93,26.86,9.89,41.45.93,4.57,1.82,9.22,2.68,13.93,7.65,42.08,12.47,89.62,13.66,140.23h-126.17l-10.36-.23-726.84-16.16L0,229.56S289.49,41.53,987.46,53.68Z"/>
  <path class="st39" d="M1013.75,295.91c-.02.94-.04,1.87-.06,2.81h-126.17l126.23-2.81Z"/>
  <path class="st7" d="M1013.75,295.91c-.02.94-.04,1.87-.06,2.81h-126.17l126.23-2.81Z"/>
  <path class="st9" d="M1000.03,438.95c-.86,4.71-1.75,9.36-2.68,13.93-476.45-1.85-742.08-91.75-847.03-137.77l726.84-16.17,122.87,140Z"/>
  <path class="st8" d="M150.32,315.11l726.84-16.17,10.36-.23h126.17c-1.19,50.61-6.01,98.15-13.66,140.23-.86,4.71-1.75,9.36-2.68,13.93-2.96,14.58-6.27,28.43-9.89,41.45C289.49,506.49,0,318.45,0,318.45l150.32-3.34Z"/>
  <path class="st5" d="M822.58,54.65l-133.28,130.59h-341.43c22.75-35.06,50.09-66.76,74.07-91.67,109.93-19.45,242.85-34.44,400.64-38.92Z"/>
  <path class="st24" d="M89.52,185.24c66.42-27.22,170.5-61.89,316.84-88.86-23.24,24.95-48.6,55.49-69.65,88.86H89.52Z"/>
  <path class="st23" d="M896.75,323.73h-212.92c-6.32,0-11.44,5.12-11.44,11.44s5.12,11.44,11.44,11.44h232.02c-5-8.9-11.8-16.51-19.11-22.88Z"/>
  <g>
    <polygon class="st20" points="821.83 339.22 834.41 339.22 840.37 344.77 834.08 344.87 821.83 339.22"/>
    <polygon class="st19" points="821.83 331.55 834.41 331.55 840.37 326.01 834.08 325.9 821.83 331.55"/>
    <polygon class="st26" points="753.62 339.05 766.19 339.05 772.15 344.6 765.87 344.7 753.62 339.05"/>
    <polygon class="st21" points="753.62 331.39 766.19 331.39 772.15 325.84 765.87 325.74 753.62 331.39"/>
    <path class="st22" d="M850.92,329.72h-103.75c-21.64.25-34.19,4.7-35.9,5.35v.16c1.74.66,14.6,5.23,36.78,5.36h102.87v-10.87Z"/>
    <rect class="st25" x="839.84" y="329.7" width="5.19" height="10.88"/>
  </g>
  <path class="st18" d="M824.54,370.68h-212.92c-6.32,0-11.44,5.12-11.44,11.44s5.12,11.44,11.44,11.44h232.03c-5-8.9-11.8-16.51-19.11-22.88Z"/>
  <g>
    <polygon class="st27" points="749.61 386.18 762.19 386.18 768.15 391.72 761.86 391.83 749.61 386.18"/>
    <polygon class="st33" points="749.61 378.51 762.19 378.51 768.15 372.96 761.86 372.86 749.61 378.51"/>
    <polygon class="st32" points="681.4 386.01 693.97 386.01 699.93 391.56 693.65 391.66 681.4 386.01"/>
    <polygon class="st29" points="681.4 378.34 693.97 378.34 699.93 372.8 693.65 372.69 681.4 378.34"/>
    <path class="st28" d="M778.7,376.67h-103.75c-21.64.25-34.19,4.7-35.9,5.35v.16c1.74.66,14.6,5.23,36.78,5.36h102.87v-10.87Z"/>
    <rect class="st30" x="767.62" y="376.66" width="5.19" height="10.88"/>
  </g>
  <path class="st31" d="M762.03,419.59h-212.92c-6.32,0-11.44,5.12-11.44,11.44s5.12,11.44,11.44,11.44h232.02c-5-8.9-11.8-16.51-19.11-22.89Z"/>
  <g>
    <polygon class="st35" points="687.11 435.08 699.68 435.08 705.64 440.63 699.36 440.73 687.11 435.08"/>
    <polygon class="st34" points="687.11 427.41 699.68 427.41 705.64 421.86 699.36 421.77 687.11 427.41"/>
    <polygon class="st16" points="618.9 434.91 631.46 434.91 637.43 440.46 631.14 440.56 618.9 434.91"/>
    <polygon class="st17" points="618.9 427.24 631.46 427.24 637.43 421.7 631.14 421.6 618.9 427.24"/>
    <path class="st13" d="M716.2,425.58h-103.75c-21.64.25-34.19,4.7-35.9,5.35v.16c1.74.66,14.6,5.23,36.78,5.36h102.87v-10.87Z"/>
    <rect class="st12" x="705.12" y="425.56" width="5.19" height="10.89"/>
  </g>
  <path class="st14" d="M1108.33,432.84c36.06-59.03-36-220.51-126.97-209.81l-432.26,293.19s447.67,81.01,559.23-83.38Z"/>
  <path class="st15" d="M1108.33,103.34c36.06,59.03-36,220.51-126.97,209.81L549.1,19.96s447.67-81.01,559.23,83.38Z"/>
  <path class="st1" d="M968.73,257.27c0-16.78,13.6-30.39,30.39-30.39s30.39,13.61,30.39,30.39-13.6,30.39-30.39,30.39-30.39-13.6-30.39-30.39Z"/>
</svg>