<?xml version="1.0" encoding="UTF-8"?>
<svg id="Layer_1" xmlns="http://www.w3.org/2000/svg" xmlns:xlink="http://www.w3.org/1999/xlink" version="1.1" viewBox="0 0 567.18 460">
  <!-- Generator: Adobe Illustrator 30.5.1, SVG Export Plug-In . SVG Version: 2.1.4 Build 3)  -->
  <defs>
    <style>
      .st0 {
        fill: url(#radial-gradient10);
      }

      .st1 {
        fill: url(#radial-gradient11);
      }

      .st2 {
        filter: url(#outer-glow-6);
      }

      .st3 {
        filter: url(#outer-glow-2);
      }

      .st4 {
        filter: url(#outer-glow-3);
      }

      .st5 {
        filter: url(#outer-glow-4);
      }

      .st6 {
        filter: url(#outer-glow-5);
      }

      .st7 {
        filter: url(#outer-glow-1);
      }

      .st8 {
        fill: url(#radial-gradient);
      }

      .st9 {
        fill: #cb007b;
        opacity: .5;
      }

      .st10 {
        fill: url(#linear-gradient);
      }

      .st11 {
        fill: url(#radial-gradient1);
      }

      .st12 {
        fill: url(#radial-gradient6);
      }

      .st13 {
        fill: url(#radial-gradient9);
      }

      .st14 {
        fill: url(#radial-gradient8);
      }

      .st15 {
        fill: url(#radial-gradient3);
      }

      .st16 {
        fill: url(#radial-gradient2);
      }

      .st17 {
        fill: url(#radial-gradient5);
      }

      .st18 {
        fill: url(#radial-gradient4);
      }

      .st19 {
        fill: url(#radial-gradient7);
      }
    </style>
    <linearGradient id="linear-gradient" x1="11.64" y1="230" x2="555.55" y2="230" gradientUnits="userSpaceOnUse">
      <stop offset="0" stop-color="#be4a84"/>
      <stop offset=".16" stop-color="#b33b7b"/>
      <stop offset=".28" stop-color="#b13778"/>
      <stop offset=".58" stop-color="#d277a0"/>
      <stop offset=".69" stop-color="#faa1d5"/>
      <stop offset=".81" stop-color="#cb6b97"/>
      <stop offset="1" stop-color="#af3577"/>
    </linearGradient>
    <radialGradient id="radial-gradient" cx="410.18" cy="83.49" fx="410.18" fy="83.49" r="388.31" gradientUnits="userSpaceOnUse">
      <stop offset="0" stop-color="#2db8e5"/>
      <stop offset="1" stop-color="#394fa1"/>
    </radialGradient>
    <radialGradient id="radial-gradient1" cy="83.49" fy="83.49" r="388.31" xlink:href="#radial-gradient"/>
    <filter id="outer-glow-1" x="216.17" y="50.35" width="144.48" height="144.72" filterUnits="userSpaceOnUse">
      <feOffset dx="0" dy="0"/>
      <feGaussianBlur result="blur" stdDeviation="11"/>
      <feFlood flood-color="#fff" flood-opacity=".75"/>
      <feComposite in2="blur" operator="in"/>
      <feComposite in="SourceGraphic"/>
    </filter>
    <radialGradient id="radial-gradient2" cx="288.36" cy="122.66" fx="288.36" fy="122.66" r="39.17" gradientUnits="userSpaceOnUse">
      <stop offset="0" stop-color="#fff"/>
      <stop offset="1" stop-color="#fff1b2"/>
    </radialGradient>
    <filter id="outer-glow-2" x="399.29" y="50.35" width="144.72" height="144.72" filterUnits="userSpaceOnUse">
      <feOffset dx="0" dy="0"/>
      <feGaussianBlur result="blur1" stdDeviation="11"/>
      <feFlood flood-color="#fff" flood-opacity=".75"/>
      <feComposite in2="blur1" operator="in"/>
      <feComposite in="SourceGraphic"/>
    </filter>
    <radialGradient id="radial-gradient3" cx="471.68" fx="471.68" r="39.17" xlink:href="#radial-gradient2"/>
    <filter id="outer-glow-3" x="24.41" y="50.35" width="144.48" height="144.72" filterUnits="userSpaceOnUse">
      <feOffset dx="0" dy="0"/>
      <feGaussianBlur result="blur2" stdDeviation="11"/>
      <feFlood flood-color="#fff" flood-opacity=".75"/>
      <feComposite in2="blur2" operator="in"/>
      <feComposite in="SourceGraphic"/>
    </filter>
    <radialGradient id="radial-gradient4" cx="96.69" fx="96.69" xlink:href="#radial-gradient2"/>
    <filter id="outer-glow-4" x="219.77" y="262.27" width="144.72" height="144.48" filterUnits="userSpaceOnUse">
      <feOffset dx="0" dy="0"/>
      <feGaussianBlur result="blur3" stdDeviation="11"/>
      <feFlood flood-color="#fff" flood-opacity=".75"/>
      <feComposite in2="blur3" operator="in"/>
      <feComposite in="SourceGraphic"/>
    </filter>
    <radialGradient id="radial-gradient5" cx="292.16" cy="334.46" fx="292.16" fy="334.46" r="39.17" xlink:href="#radial-gradient2"/>
    <filter id="outer-glow-5" x="403.13" y="262.27" width="144.72" height="144.48" filterUnits="userSpaceOnUse">
      <feOffset dx="0" dy="0"/>
      <feGaussianBlur result="blur4" stdDeviation="11"/>
      <feFlood flood-color="#fff" flood-opacity=".75"/>
      <feComposite in2="blur4" operator="in"/>
      <feComposite in="SourceGraphic"/>
    </filter>
    <radialGradient id="radial-gradient6" cx="475.47" cy="334.46" fx="475.47" fy="334.46" r="39.17" xlink:href="#radial-gradient2"/>
    <filter id="outer-glow-6" x="28.25" y="262.27" width="144.48" height="144.48" filterUnits="userSpaceOnUse">
      <feOffset dx="0" dy="0"/>
      <feGaussianBlur result="blur5" stdDeviation="11"/>
      <feFlood flood-color="#fff" flood-opacity=".75"/>
      <feComposite in2="blur5" operator="in"/>
      <feComposite in="SourceGraphic"/>
    </filter>
    <radialGradient id="radial-gradient7" cx="100.48" cy="334.46" fx="100.48" fy="334.46" r="39.17" xlink:href="#radial-gradient2"/>
    <radialGradient id="radial-gradient8" cx="391.69" cy="109.6" fx="391.69" fy="109.6" r="272.45" gradientUnits="userSpaceOnUse">
      <stop offset="0" stop-color="#f16522"/>
      <stop offset="1" stop-color="#d7282f"/>
    </radialGradient>
    <radialGradient id="radial-gradient9" cy="109.6" fy="109.6" r="272.45" xlink:href="#radial-gradient8"/>
    <radialGradient id="radial-gradient10" cx="391.69" fx="391.69" r="272.45" xlink:href="#radial-gradient8"/>
    <radialGradient id="radial-gradient11" cx="391.69" cy="109.6" fx="391.69" fy="109.6" r="272.45" xlink:href="#radial-gradient8"/>
  </defs>
  <path class="st10" d="M555.55,230c0,120.17-121.76,217.6-271.96,217.6S11.64,350.18,11.64,230c0-6.97.41-13.87,1.21-20.67,1.04-8.87,2.75-17.58,5.09-26.11C44.68,85.53,153.47,12.41,283.59,12.41s238.91,73.12,265.66,170.81c2.33,8.53,4.04,17.24,5.09,26.11.81,6.81,1.21,13.7,1.21,20.67Z"/>
  <path class="st9" d="M554.33,209.33H12.85c1.04-8.87,2.75-17.58,5.09-26.11h531.31c2.33,8.53,4.04,17.24,5.09,26.11Z"/>
  <path class="st8" d="M567.18,267.85c-20.86,100.86-123.74,179.56-251.98,190.77h0c-2.89.26-5.8.48-8.72.66-7.55.47-15.18.72-22.89.72-7.26,0-14.45-.22-21.57-.64-2.86-.16-5.7-.37-8.54-.6t-.01,0C124.54,448.01,20.94,369.1,0,267.85h567.18Z"/>
  <path class="st11" d="M567.18,192.15H0C21.03,90.55,125.29,11.42,254.85,1.14c2.71-.22,5.43-.4,8.16-.55,6.8-.39,13.66-.58,20.58-.58,7.37,0,14.67.22,21.9.66,2.79.17,5.56.36,8.32.6,128.88,10.77,232.43,89.68,253.37,190.9Z"/>
  <g>
    <g class="st7">
      <circle class="st16" cx="288.36" cy="122.66" r="39.17"/>
    </g>
    <g class="st3">
      <circle class="st15" cx="471.68" cy="122.66" r="39.17"/>
    </g>
    <g class="st4">
      <circle class="st18" cx="96.69" cy="122.66" r="39.17"/>
    </g>
  </g>
  <g class="st5">
    <circle class="st17" cx="292.16" cy="334.46" r="39.17"/>
  </g>
  <g class="st6">
    <circle class="st12" cx="475.47" cy="334.46" r="39.17"/>
  </g>
  <g class="st2">
    <circle class="st19" cx="100.48" cy="334.46" r="39.17"/>
  </g>
  <path class="st14" d="M241.07,444.95c6.66,6.27,13.67,11.14,20.94,14.41-2.86-.16-5.7-.37-8.54-.6t-.01,0c-10.15-3.71-19.88-9.22-29.07-16.32h0c-41.66-32.19-72.29-96.98-79.88-174.53h32.91c5.96,79.65,30.47,145.82,63.65,177.05Z"/>
  <path class="st13" d="M177.44,192.2h-32.9s0-.03,0-.04c.29-3,.63-5.97.99-8.93,9.09-73.84,39.19-135.04,79.52-165.76,9.42-7.19,19.4-12.7,29.8-16.33,2.71-.22,5.43-.4,8.16-.55-7.46,3.2-14.64,8.07-21.46,14.41h0c-32.11,29.83-56.2,92.36-63.34,168.23-.28,2.96-.53,5.93-.76,8.93,0,.02,0,.03,0,.04Z"/>
  <path class="st0" d="M326.95,15.16c-6.82-6.38-14.01-11.27-21.47-14.5,2.79.17,5.56.36,8.32.6,10.41,3.67,20.39,9.24,29.82,16.47,40.16,30.81,70.1,91.87,79.17,165.49.36,2.96.7,5.93.99,8.93,0,.02,0,.03,0,.04h-32.91s0-.03,0-.04c-.23-3-.48-5.97-.76-8.93-7.12-75.73-31.14-138.16-63.16-168.06Z"/>
  <path class="st1" d="M423.81,267.9c-7.57,77.34-38.05,141.98-79.54,174.26h0s0,0,0,0c-9.19,7.15-18.92,12.71-29.07,16.46h0c-2.89.26-5.8.48-8.72.66,7.28-3.3,14.3-8.2,20.96-14.5,33.07-31.31,57.52-97.39,63.46-176.88h32.92Z"/>
</svg>