<?xml version="1.0" encoding="UTF-8"?>
<svg id="Layer_1" xmlns="http://www.w3.org/2000/svg" xmlns:xlink="http://www.w3.org/1999/xlink" version="1.1" viewBox="0 0 1443.85 348.45">
  <!-- Generator: Adobe Illustrator 30.5.1, SVG Export Plug-In . SVG Version: 2.1.4 Build 3)  -->
  <defs>
    <style>
      .st0 {
        fill: none;
      }

      .st1 {
        fill: #f3f4f5;
      }

      .st2 {
        fill: url(#linear-gradient2);
      }

      .st3 {
        fill: url(#linear-gradient1);
      }

      .st4 {
        fill: url(#linear-gradient9);
      }

      .st5 {
        fill: url(#linear-gradient3);
      }

      .st6 {
        fill: url(#linear-gradient6);
      }

      .st7 {
        fill: url(#linear-gradient8);
      }

      .st8 {
        fill: url(#linear-gradient7);
      }

      .st9 {
        fill: url(#linear-gradient5);
      }

      .st10 {
        fill: url(#linear-gradient4);
      }

      .st11 {
        fill: url(#linear-gradient18);
      }

      .st12 {
        fill: url(#linear-gradient13);
      }

      .st13 {
        fill: url(#linear-gradient12);
      }

      .st14 {
        fill: url(#linear-gradient15);
      }

      .st15 {
        fill: url(#linear-gradient16);
      }

      .st16 {
        fill: url(#linear-gradient11);
      }

      .st17 {
        fill: url(#linear-gradient10);
      }

      .st18 {
        fill: url(#linear-gradient17);
      }

      .st19 {
        fill: url(#linear-gradient14);
      }

      .st20 {
        fill: url(#linear-gradient);
      }

      .st21 {
        fill: #003da6;
        opacity: .3;
      }

      .st22 {
        fill: #c7c8ca;
      }

      .st23 {
        fill: #a4a5a7;
      }

      .st24 {
        fill: #535254;
      }

      .st25 {
        clip-path: url(#clippath);
      }
    </style>
    <linearGradient id="linear-gradient" x1="250.19" y1="182.94" x2="225.14" y2="273.94" gradientUnits="userSpaceOnUse">
      <stop offset="0" stop-color="#394fa1"/>
      <stop offset="1" stop-color="#2db8e5"/>
    </linearGradient>
    <clipPath id="clippath">
      <path class="st0" d="M481.09,180.1l-48.33,48.33H0s71.94-43.84,89.92-46.08c17.99-2.25,391.17-2.25,391.17-2.25"/>
    </clipPath>
    <linearGradient id="linear-gradient1" x1="423.53" y1="263.84" x2="423.53" y2="159.86" xlink:href="#linear-gradient"/>
    <linearGradient id="linear-gradient2" x1="909.94" y1="-50.58" x2="1328.08" y2="367.56" xlink:href="#linear-gradient"/>
    <linearGradient id="linear-gradient3" x1="611.9" y1="-69.38" x2="683.84" y2="104.93" gradientUnits="userSpaceOnUse">
      <stop offset="0" stop-color="#fff"/>
      <stop offset="1" stop-color="#000"/>
    </linearGradient>
    <linearGradient id="linear-gradient4" x1="794.24" y1="221.12" x2="110.79" y2="78.23" xlink:href="#linear-gradient"/>
    <linearGradient id="linear-gradient5" x1="889.26" y1="121.15" x2="1068.64" y2="41.08" xlink:href="#linear-gradient"/>
    <linearGradient id="linear-gradient6" x1="1048.11" y1="68.34" x2="1047.49" y2="252.68" xlink:href="#linear-gradient"/>
    <linearGradient id="linear-gradient7" x1="796.68" y1="206.34" x2="796.68" y2="216.22" gradientUnits="userSpaceOnUse">
      <stop offset="0" stop-color="#fff"/>
      <stop offset="1" stop-color="#ee3931"/>
    </linearGradient>
    <linearGradient id="linear-gradient8" x1="796.68" y1="-527.43" x2="796.68" y2="-517.56" gradientTransform="translate(0 -322.02) scale(1 -1)" xlink:href="#linear-gradient7"/>
    <linearGradient id="linear-gradient9" x1="714.5" y1="206.17" x2="714.5" y2="216.05" xlink:href="#linear-gradient7"/>
    <linearGradient id="linear-gradient10" x1="714.5" y1="-527.26" x2="714.5" y2="-517.39" gradientTransform="translate(0 -322.02) scale(1 -1)" xlink:href="#linear-gradient7"/>
    <linearGradient id="linear-gradient11" x1="744.46" y1="198.66" x2="744.46" y2="217.66" xlink:href="#linear-gradient3"/>
    <linearGradient id="linear-gradient12" x1="808.24" y1="193.47" x2="808.24" y2="212.49" xlink:href="#linear-gradient7"/>
    <linearGradient id="linear-gradient13" x1="635.22" x2="635.22" xlink:href="#linear-gradient7"/>
    <linearGradient id="linear-gradient14" x1="635.22" y1="-527.43" x2="635.22" y2="-517.56" gradientTransform="translate(0 -322.02) scale(1 -1)" xlink:href="#linear-gradient7"/>
    <linearGradient id="linear-gradient15" x1="553.03" y1="206.17" x2="553.03" y2="216.05" xlink:href="#linear-gradient7"/>
    <linearGradient id="linear-gradient16" x1="553.03" y1="-527.26" x2="553.03" y2="-517.39" gradientTransform="translate(0 -322.02) scale(1 -1)" xlink:href="#linear-gradient7"/>
    <linearGradient id="linear-gradient17" x1="582.99" y1="198.66" x2="582.99" y2="217.66" xlink:href="#linear-gradient3"/>
    <linearGradient id="linear-gradient18" x1="646.77" y1="193.47" x2="646.77" y2="212.49" xlink:href="#linear-gradient7"/>
  </defs>
  <rect class="st24" x="396.63" y="119.47" width="574.14" height="103.45"/>
  <path class="st20" d="M119.73,179.85l366.44-4.5-48.33,48.33H5.08s71.94-43.84,89.92-46.08c17.99-2.25,391.17-2.25,391.17-2.25"/>
  <g class="st25">
    <g>
      <g>
        <g>
          <rect class="st22" x="330.37" y="190.1" width="159.48" height="12.82"/>
          <rect class="st1" x="330.37" y="193.13" width="159.48" height="2.2"/>
          <rect class="st23" x="330.37" y="198.31" width="159.48" height="2.2"/>
        </g>
        <g>
          <path class="st24" d="M335.81,196.5c0,.83-.67,1.5-1.5,1.5s-1.51-.67-1.51-1.5.68-1.5,1.51-1.5,1.5.67,1.5,1.5Z"/>
          <path class="st24" d="M344.74,196.5c0,.83-.67,1.51-1.5,1.51s-1.51-.67-1.51-1.51.68-1.5,1.51-1.5,1.5.67,1.5,1.5Z"/>
          <path class="st24" d="M353.68,196.5c0,.83-.67,1.51-1.5,1.51s-1.51-.67-1.51-1.51.68-1.5,1.51-1.5,1.5.67,1.5,1.5Z"/>
          <path class="st24" d="M362.62,196.5c0,.83-.68,1.51-1.5,1.51s-1.51-.67-1.51-1.51.68-1.5,1.51-1.5,1.5.67,1.5,1.5Z"/>
          <path class="st24" d="M371.55,196.5c0,.83-.68,1.51-1.5,1.51s-1.51-.67-1.51-1.51.68-1.5,1.51-1.5,1.5.67,1.5,1.5Z"/>
          <path class="st24" d="M380.49,196.5c0,.83-.68,1.51-1.5,1.51s-1.51-.67-1.51-1.51.68-1.5,1.51-1.5,1.5.67,1.5,1.5Z"/>
          <path class="st24" d="M389.43,196.5c0,.83-.68,1.51-1.5,1.51s-1.51-.68-1.51-1.51.68-1.5,1.51-1.5,1.5.67,1.5,1.5Z"/>
        </g>
        <g>
          <g>
            <path class="st24" d="M340.56,192.33c0,.83-.68,1.51-1.51,1.51s-1.51-.67-1.51-1.51.67-1.51,1.51-1.51,1.51.68,1.51,1.51Z"/>
            <path class="st24" d="M349.5,192.33c0,.83-.68,1.51-1.51,1.51s-1.51-.67-1.51-1.51.67-1.51,1.51-1.51,1.51.68,1.51,1.51Z"/>
            <path class="st24" d="M358.43,192.33c0,.83-.68,1.51-1.51,1.51s-1.51-.67-1.51-1.51.67-1.51,1.51-1.51,1.51.68,1.51,1.51Z"/>
            <path class="st24" d="M367.37,192.33c0,.83-.68,1.51-1.51,1.51s-1.51-.67-1.51-1.51.67-1.51,1.51-1.51,1.51.68,1.51,1.51Z"/>
            <path class="st24" d="M376.3,192.33c0,.83-.67,1.51-1.51,1.51s-1.51-.67-1.51-1.51.67-1.51,1.51-1.51,1.51.68,1.51,1.51Z"/>
            <path class="st24" d="M385.24,192.33c0,.83-.67,1.51-1.51,1.51s-1.51-.67-1.51-1.51.67-1.51,1.51-1.51,1.51.68,1.51,1.51Z"/>
            <path class="st24" d="M394.17,192.33c0,.83-.67,1.51-1.5,1.51s-1.5-.67-1.5-1.51.67-1.51,1.5-1.51,1.5.68,1.5,1.51Z"/>
          </g>
          <g>
            <path class="st24" d="M340.56,200.68c0,.83-.68,1.5-1.51,1.5s-1.51-.67-1.51-1.5.67-1.5,1.51-1.5,1.51.67,1.51,1.5Z"/>
            <path class="st24" d="M349.5,200.68c0,.83-.68,1.51-1.51,1.51s-1.51-.67-1.51-1.51.67-1.5,1.51-1.5,1.51.67,1.51,1.5Z"/>
            <path class="st24" d="M358.43,200.68c0,.83-.68,1.51-1.51,1.51s-1.51-.67-1.51-1.51.67-1.5,1.51-1.5,1.51.67,1.51,1.5Z"/>
            <path class="st24" d="M367.37,200.68c0,.83-.68,1.51-1.51,1.51s-1.51-.68-1.51-1.51.67-1.5,1.51-1.5,1.51.67,1.51,1.5Z"/>
            <path class="st24" d="M376.3,200.68c0,.83-.67,1.51-1.51,1.51s-1.51-.68-1.51-1.51.67-1.5,1.51-1.5,1.51.67,1.51,1.5Z"/>
            <path class="st24" d="M385.24,200.68c0,.83-.67,1.51-1.51,1.51s-1.51-.68-1.51-1.51.67-1.5,1.51-1.5,1.51.67,1.51,1.5Z"/>
            <path class="st24" d="M394.17,200.68c0,.83-.67,1.51-1.5,1.51s-1.5-.68-1.5-1.51.67-1.5,1.5-1.5,1.5.67,1.5,1.5Z"/>
          </g>
        </g>
        <path class="st24" d="M331.31,196.51c0,3.54-.41,6.42-.92,6.42s-.92-2.87-.92-6.42.41-6.41.92-6.41.92,2.87.92,6.41Z"/>
      </g>
      <g>
        <g>
          <rect class="st22" x="316.87" y="208.09" width="159.48" height="12.82"/>
          <rect class="st1" x="316.87" y="211.13" width="159.48" height="2.2"/>
          <rect class="st23" x="316.87" y="216.31" width="159.48" height="2.2"/>
        </g>
        <g>
          <path class="st24" d="M322.31,214.5c0,.83-.67,1.51-1.51,1.51s-1.51-.67-1.51-1.51.68-1.5,1.51-1.5,1.51.67,1.51,1.5Z"/>
          <path class="st24" d="M331.25,214.5c0,.83-.67,1.51-1.51,1.51s-1.51-.67-1.51-1.51.68-1.5,1.51-1.5,1.51.67,1.51,1.5Z"/>
          <path class="st24" d="M340.18,214.5c0,.83-.68,1.51-1.51,1.51s-1.51-.67-1.51-1.51.68-1.5,1.51-1.5,1.51.67,1.51,1.5Z"/>
          <path class="st24" d="M349.12,214.5c0,.83-.68,1.51-1.51,1.51s-1.51-.67-1.51-1.51.68-1.5,1.51-1.5,1.51.67,1.51,1.5Z"/>
          <path class="st24" d="M358.06,214.5c0,.83-.68,1.51-1.51,1.51s-1.51-.67-1.51-1.51.68-1.5,1.51-1.5,1.51.67,1.51,1.5Z"/>
          <path class="st24" d="M366.99,214.5c0,.83-.68,1.51-1.51,1.51s-1.51-.68-1.51-1.51.68-1.5,1.51-1.5,1.51.67,1.51,1.5Z"/>
          <path class="st24" d="M375.93,214.5c0,.83-.68,1.51-1.5,1.51s-1.51-.68-1.51-1.51.68-1.5,1.51-1.5,1.5.67,1.5,1.5Z"/>
        </g>
        <g>
          <g>
            <path class="st24" d="M327.06,210.33c0,.83-.67,1.51-1.51,1.51s-1.51-.67-1.51-1.51.67-1.51,1.51-1.51,1.51.68,1.51,1.51Z"/>
            <path class="st24" d="M336,210.33c0,.83-.67,1.51-1.51,1.51s-1.51-.67-1.51-1.51.67-1.51,1.51-1.51,1.51.68,1.51,1.51Z"/>
            <path class="st24" d="M344.94,210.33c0,.83-.67,1.51-1.51,1.51s-1.51-.67-1.51-1.51.67-1.51,1.51-1.51,1.51.68,1.51,1.51Z"/>
            <path class="st24" d="M353.87,210.33c0,.83-.67,1.51-1.51,1.51s-1.51-.67-1.51-1.51.67-1.51,1.51-1.51,1.51.68,1.51,1.51Z"/>
            <path class="st24" d="M362.81,210.33c0,.83-.67,1.51-1.51,1.51s-1.51-.67-1.51-1.51.67-1.51,1.51-1.51,1.51.68,1.51,1.51Z"/>
            <path class="st24" d="M371.74,210.33c0,.83-.67,1.51-1.51,1.51s-1.51-.67-1.51-1.51.67-1.51,1.51-1.51,1.51.68,1.51,1.51Z"/>
            <path class="st24" d="M380.68,210.33c0,.83-.67,1.51-1.5,1.51s-1.51-.67-1.51-1.51.67-1.51,1.51-1.51,1.5.68,1.5,1.51Z"/>
          </g>
          <g>
            <path class="st24" d="M327.06,218.67c0,.83-.67,1.5-1.51,1.5s-1.51-.67-1.51-1.5.67-1.5,1.51-1.5,1.51.67,1.51,1.5Z"/>
            <path class="st24" d="M336,218.67c0,.83-.67,1.5-1.51,1.5s-1.51-.67-1.51-1.5.67-1.5,1.51-1.5,1.51.67,1.51,1.5Z"/>
            <path class="st24" d="M344.94,218.67c0,.83-.67,1.51-1.51,1.51s-1.51-.68-1.51-1.51.67-1.5,1.51-1.5,1.51.67,1.51,1.5Z"/>
            <path class="st24" d="M353.87,218.67c0,.83-.67,1.51-1.51,1.51s-1.51-.68-1.51-1.51.67-1.5,1.51-1.5,1.51.67,1.51,1.5Z"/>
            <path class="st24" d="M362.81,218.67c0,.83-.67,1.51-1.51,1.51s-1.51-.68-1.51-1.51.67-1.5,1.51-1.5,1.51.67,1.51,1.5Z"/>
            <path class="st24" d="M371.74,218.67c0,.83-.67,1.51-1.51,1.51s-1.51-.68-1.51-1.51.67-1.5,1.51-1.5,1.51.67,1.51,1.5Z"/>
            <path class="st24" d="M380.68,218.67c0,.83-.67,1.51-1.5,1.51s-1.51-.68-1.51-1.51.67-1.5,1.51-1.5,1.5.67,1.5,1.5Z"/>
          </g>
        </g>
        <path class="st24" d="M317.81,214.51c0,3.54-.41,6.42-.92,6.42s-.92-2.87-.92-6.42.41-6.41.92-6.41.92,2.87.92,6.41Z"/>
      </g>
    </g>
  </g>
  <polygon class="st3" points="487.07 176.25 406.42 177.24 359.99 223.67 439.65 223.67 487.07 176.25"/>
  <polygon class="st2" points="1212.3 60.7 1369.67 60.7 1443.85 348.45 906.56 236.05 773.93 161.86 1212.3 60.7"/>
  <polygon class="st21" points="872.79 161.88 887.46 187.21 1396.26 309.25 1332.91 62.52 1300.23 59.18 872.79 161.88"/>
  <path class="st5" d="M1097.65,6.74c-387.93,0-683.52,66.07-859.31,119.57,502.13,6.75,859.31-119.57,859.31-119.57Z"/>
  <path class="st10" d="M231.59,119.58c-119.64,36.41-183.8,67.02-183.8,67.02h867.76l-192.04-101.79c-136.23,21.17-303.91,37.3-491.92,34.77Z"/>
  <path class="st9" d="M1090.9,0s-123.07,43.52-326.28,78.11l284.52-3.51,262.06-43.13L1090.9,0Z"/>
  <path class="st6" d="M1311.21,31.47l-546.59,46.63c-13.36,2.28-27.07,4.51-41.11,6.69l192.04,101.79,456.36,101.16-60.7-256.28Z"/>
  <g>
    <polygon class="st8" points="787.25 209.78 800.05 209.78 806.12 215.43 799.72 215.54 787.25 209.78"/>
    <polygon class="st7" points="787.25 201.98 800.05 201.98 806.12 196.33 799.72 196.22 787.25 201.98"/>
    <polygon class="st4" points="705.06 209.61 717.86 209.61 723.94 215.26 717.54 215.37 705.06 209.61"/>
    <polygon class="st17" points="705.06 201.81 717.86 201.81 723.94 196.16 717.54 196.05 705.06 201.81"/>
    <path class="st16" d="M816.87,200.11h-118.37c-22.03.25-24.7,4.79-26.45,5.45v.16c1.77.67,4.76,5.33,27.34,5.46h117.48v-11.07Z"/>
    <rect class="st13" x="805.59" y="200.09" width="5.29" height="11.09"/>
  </g>
  <g>
    <polygon class="st12" points="625.78 209.78 638.58 209.78 644.65 215.43 638.25 215.54 625.78 209.78"/>
    <polygon class="st19" points="625.78 201.98 638.58 201.98 644.65 196.33 638.25 196.22 625.78 201.98"/>
    <polygon class="st14" points="543.59 209.61 556.39 209.61 562.47 215.26 556.07 215.37 543.59 209.61"/>
    <polygon class="st15" points="543.59 201.81 556.39 201.81 562.47 196.16 556.07 196.05 543.59 201.81"/>
    <path class="st18" d="M655.4,200.11h-118.37c-22.03.25-24.7,4.79-26.45,5.45v.16c1.77.67,4.77,5.33,27.34,5.46h117.48v-11.07Z"/>
    <rect class="st11" x="644.12" y="200.09" width="5.29" height="11.09"/>
  </g>
</svg>