<svg xmlns="http://www.w3.org/2000/svg" viewBox="0 0 300 600" width="300" height="600">
<defs>
<linearGradient id="slate" x1="0" y1="0" x2="1" y2="0"><stop offset="0" stop-color="#6c7686"/><stop offset="0.5" stop-color="#9aa4b2"/><stop offset="1" stop-color="#6c7686"/></linearGradient>
<linearGradient id="steel" x1="0" y1="0" x2="1" y2="0"><stop offset="0" stop-color="#828891"/><stop offset="0.5" stop-color="#c9ced3"/><stop offset="1" stop-color="#828891"/></linearGradient>
<linearGradient id="glass" x1="0" y1="0" x2="1" y2="1"><stop offset="0" stop-color="#c4d2da"/><stop offset="1" stop-color="#7c8b96"/></linearGradient>
</defs>

<line x1="0" y1="560" x2="300" y2="560" stroke="#b4b6b3" stroke-width="2"/>

<!-- thick pipes left (attached) -->
<path d="M 62 230 L 62 165 Q 62 158 70 158" fill="none" stroke="#5e6573" stroke-width="9"/>
<path d="M 62 230 L 60 522" fill="none" stroke="url(#steel)" stroke-width="9"/>
<rect x="55" y="320" width="14" height="7" fill="#525a66"/><rect x="55" y="430" width="14" height="7" fill="#525a66"/>
<path d="M 78 250 L 76 522" fill="none" stroke="url(#steel)" stroke-width="6"/>

<!-- main slate body + flared base -->
<path d="M 70 560 C 74 500 84 452 96 432 Q 160 424 224 432 C 236 452 246 500 250 560 Z" fill="url(#slate)" stroke="#444b57" stroke-width="1.5"/>
<path d="M 92 150 L 84 415 C 84 425 90 430 100 434 L 220 434 C 230 430 236 425 236 415 L 228 150 Z" fill="url(#slate)" stroke="#444b57" stroke-width="2"/>
<line x1="86" y1="250" x2="234" y2="250" stroke="#444b57" stroke-width="1.2" opacity="0.5"/>
<line x1="85" y1="340" x2="235" y2="340" stroke="#444b57" stroke-width="1.2" opacity="0.5"/>

<!-- left square windows -->
<g><rect x="104" y="190" width="42" height="48" rx="2" fill="#e8e8e2" stroke="#7e817c" stroke-width="1.5"/><rect x="108" y="194" width="34" height="40" fill="url(#glass)"/><g stroke="#e8e8e2" stroke-width="2.4"><line x1="125" y1="194" x2="125" y2="234"/><line x1="108" y1="214" x2="142" y2="214"/></g></g>
<g><rect x="104" y="300" width="42" height="48" rx="2" fill="#e8e8e2" stroke="#7e817c" stroke-width="1.5"/><rect x="108" y="304" width="34" height="40" fill="url(#glass)"/><g stroke="#e8e8e2" stroke-width="2.4"><line x1="125" y1="304" x2="125" y2="344"/><line x1="108" y1="324" x2="142" y2="324"/></g></g>

<!-- right round turret-bay (corbelled bartizan) with tall window + small dome -->
<g>
<path d="M 224 210 L 234 360 C 240 372 256 372 262 360 L 272 210 Z" fill="url(#slate)" stroke="#444b57" stroke-width="1.8"/>
<path d="M 222 212 Q 248 196 274 212 Z" fill="url(#slate)" stroke="#444b57" stroke-width="1.5"/>
<path d="M 222 212 Q 248 184 274 212 Z" fill="url(#steel)" stroke="#444b57" stroke-width="1.5"/>
<rect x="236" y="232" width="26" height="92" rx="3" fill="#e8e8e2" stroke="#7e817c" stroke-width="1.5"/>
<rect x="240" y="236" width="18" height="84" fill="url(#glass)"/>
<g stroke="#e8e8e2" stroke-width="2.2"><line x1="240" y1="264" x2="258" y2="264"/><line x1="240" y1="292" x2="258" y2="292"/></g>
</g>

<!-- rooftop autocannon on deck -->
<rect x="96" y="138" width="116" height="16" rx="4" fill="url(#steel)" stroke="#5f625e" stroke-width="1.5"/>
<ellipse cx="154" cy="140" rx="56" ry="8" fill="url(#steel)" stroke="#5f625e" stroke-width="1.2"/>
<g>
<rect x="140" y="120" width="32" height="16" rx="3" fill="#3a3f44" stroke="#23262a" stroke-width="1"/>
<path d="M 144 126 L 176 114 L 186 92 L 154 104 Z" fill="#4a5057" stroke="#23262a" stroke-width="1.2"/>
<ellipse cx="180" cy="106" rx="10" ry="8" fill="#3a3f44" stroke="#23262a" stroke-width="1"/>
<g stroke="#3a3f44" stroke-width="5.5" stroke-linecap="round"><line x1="164" y1="102" x2="96" y2="62"/><line x1="160" y1="110" x2="92" y2="70"/><line x1="168" y1="95" x2="100" y2="55"/></g>
<path d="M 90 70 L 106 54 L 100 49 L 84 65 Z" fill="#4a5057" stroke="#23262a" stroke-width="1"/>
<path d="M 184 114 C 200 112 202 98 190 94" fill="none" stroke="#6a7079" stroke-width="3.5"/>
</g>

<!-- door + orange crate at foot -->
<g><rect x="124" y="476" width="48" height="84" rx="3" fill="url(#steel)" stroke="#5f625e" stroke-width="1.5"/><rect x="130" y="482" width="36" height="78" fill="#465062"/><line x1="148" y1="482" x2="148" y2="560" stroke="#2e3540" stroke-width="1.2"/><circle cx="160" cy="522" r="2.4" fill="#20252e"/></g>
<g><rect x="196" y="534" width="40" height="26" rx="2" fill="#df8a2e" stroke="#8a5316" stroke-width="1.2"/><line x1="216" y1="534" x2="216" y2="560" stroke="#8a5316" stroke-width="1"/><line x1="196" y1="547" x2="236" y2="547" stroke="#8a5316" stroke-width="1"/></g>

<!-- flared foot -->
<path d="M 62 560 L 72 540 Q 110 546 150 542 Q 192 547 230 540 L 240 560 Z" fill="url(#steel)" stroke="#5f625e" stroke-width="1.5"/>
</svg>
