<svg xmlns="http://www.w3.org/2000/svg" viewBox="0 0 200 600" width="200" height="600">
<defs>
<linearGradient id="slate" x1="0" y1="0" x2="1" y2="0"><stop offset="0" stop-color="#6c7686"/><stop offset="0.5" stop-color="#9aa4b2"/><stop offset="1" stop-color="#6c7686"/></linearGradient>
<linearGradient id="steel" x1="0" y1="0" x2="1" y2="0"><stop offset="0" stop-color="#828891"/><stop offset="0.5" stop-color="#c9ced3"/><stop offset="1" stop-color="#828891"/></linearGradient>
<radialGradient id="rdome" cx="0.36" cy="0.3" r="0.9"><stop offset="0" stop-color="#cc4a36"/><stop offset="1" stop-color="#7e2316"/></radialGradient>
<linearGradient id="glass" x1="0" y1="0" x2="1" y2="1"><stop offset="0" stop-color="#c4d2da"/><stop offset="1" stop-color="#7c8b96"/></linearGradient>
</defs>
<line x1="0" y1="560" x2="200" y2="560" stroke="#b4b6b3" stroke-width="2"/>
<!-- pipe -->
<path d="M 150 280 L 150 200 Q 150 194 144 194" fill="none" stroke="#5e6573" stroke-width="5"/><path d="M 150 280 L 152 522" fill="none" stroke="url(#steel)" stroke-width="5"/><rect x="145" y="400" width="10" height="6" fill="#525a66"/>
<!-- slate tower -->
<path d="M 42 560 C 48 502 58 320 62 268 L 64 158 Q 100 151 138 158 L 140 268 C 144 320 154 502 160 560 Z" fill="url(#slate)" stroke="#444b57" stroke-width="1.5"/>
<line x1="62" y1="380" x2="140" y2="380" stroke="#586273" stroke-width="1"/>
<!-- red dome + deck -->
<rect x="58" y="134" width="88" height="12" rx="3" fill="url(#steel)" stroke="#5f625e" stroke-width="1.5"/>
<path d="M 62 136 Q 62 104 102 98 Q 142 104 142 136 Z" fill="url(#rdome)" stroke="#5e1c12" stroke-width="1.5"/>
<ellipse cx="86" cy="116" rx="16" ry="6" fill="#ffffff" opacity="0.16"/>
<!-- orange louvered window -->
<g><rect x="72" y="186" width="44" height="40" rx="2" fill="#d07a2c" stroke="#8a5316" stroke-width="1.8"/><g stroke="#8a5316" stroke-width="2.2"><line x1="76" y1="194" x2="112" y2="194"/><line x1="76" y1="202" x2="112" y2="202"/><line x1="76" y1="210" x2="112" y2="210"/><line x1="76" y1="218" x2="112" y2="218"/></g></g>
<!-- window -->
<g><rect x="76" y="300" width="38" height="50" rx="2" fill="#e8e8e2" stroke="#7e817c" stroke-width="1.5"/><rect x="80" y="304" width="30" height="42" fill="url(#glass)"/><g stroke="#e8e8e2" stroke-width="2.2"><line x1="95" y1="304" x2="95" y2="346"/><line x1="80" y1="325" x2="110" y2="325"/></g></g>
<!-- door -->
<g><rect x="78" y="484" width="44" height="76" rx="3" fill="url(#steel)" stroke="#5f625e" stroke-width="1.5"/><rect x="84" y="490" width="32" height="70" fill="#465062"/><line x1="100" y1="490" x2="100" y2="560" stroke="#2e3540" stroke-width="1.2"/></g>
<!-- foot -->
<path d="M 38 560 L 48 542 Q 86 548 122 544 Q 160 548 162 542 L 168 560 Z" fill="url(#steel)" stroke="#5f625e" stroke-width="1.5"/>
</svg>
