<svg xmlns="http://www.w3.org/2000/svg" viewBox="0 0 210 600" width="210" height="600">
<defs>
<linearGradient id="o" x1="0" y1="0" x2="1" y2="0"><stop offset="0" stop-color="#b04a18"/><stop offset="0.5" stop-color="#dd6a26"/><stop offset="1" stop-color="#b04a18"/></linearGradient>
<linearGradient id="steel" x1="0" y1="0" x2="1" y2="0"><stop offset="0" stop-color="#828891"/><stop offset="0.5" stop-color="#c9ced3"/><stop offset="1" stop-color="#828891"/></linearGradient>
<linearGradient id="dome" x1="0" y1="0" x2="1" y2="0"><stop offset="0" stop-color="#717b8a"/><stop offset="0.5" stop-color="#aab3c0"/><stop offset="1" stop-color="#6a7482"/></linearGradient>
<linearGradient id="glass" x1="0" y1="0" x2="1" y2="1"><stop offset="0" stop-color="#c4d2da"/><stop offset="1" stop-color="#7c8b96"/></linearGradient>
</defs>
<line x1="0" y1="560" x2="210" y2="560" stroke="#b4b6b3" stroke-width="2"/>
<path d="M 158 290 L 158 210 Q 158 204 152 204" fill="none" stroke="#6a7079" stroke-width="5"/><path d="M 158 290 L 160 522" fill="none" stroke="url(#steel)" stroke-width="5"/><rect x="153" y="410" width="10" height="6" fill="#5a6066"/>
<!-- orange tower -->
<path d="M 46 560 C 52 502 62 320 66 250 L 68 158 Q 105 151 142 158 L 144 250 C 148 320 158 502 164 560 Z" fill="url(#o)" stroke="#6a3a0d" stroke-width="1.5"/>
<line x1="66" y1="370" x2="144" y2="370" stroke="#8a4d12" stroke-width="1"/>
<!-- dome + deck -->
<rect x="60" y="144" width="92" height="12" rx="3" fill="url(#steel)" stroke="#5f625e" stroke-width="1.5"/>
<path d="M 64 146 Q 64 116 106 110 Q 148 116 148 146 Z" fill="url(#dome)" stroke="#444b57" stroke-width="1.5"/>
<!-- gun -->
<g>
<rect x="94" y="92" width="26" height="13" rx="3" fill="#3a3f44" stroke="#23262a" stroke-width="1"/>
<g stroke="#3a3f44" stroke-width="4.4" stroke-linecap="round"><line x1="108" y1="96" x2="166" y2="60"/><line x1="112" y1="102" x2="170" y2="66"/></g>
<path d="M 162 66 L 178 50 L 172 45 L 156 61 Z" fill="#4a5057" stroke="#23262a" stroke-width="1"/>
<ellipse cx="98" cy="98" rx="8" ry="6" fill="#3a3f44" stroke="#23262a" stroke-width="1"/>
</g>
<g><rect x="78" y="200" width="38" height="54" rx="2" fill="#e8e8e2" stroke="#7e817c" stroke-width="1.5"/><rect x="82" y="204" width="30" height="46" fill="url(#glass)"/><g stroke="#e8e8e2" stroke-width="2.2"><line x1="97" y1="204" x2="97" y2="250"/><line x1="82" y1="227" x2="112" y2="227"/></g></g>
<g><rect x="78" y="300" width="38" height="54" rx="2" fill="#e8e8e2" stroke="#7e817c" stroke-width="1.5"/><rect x="82" y="304" width="30" height="46" fill="url(#glass)"/><g stroke="#e8e8e2" stroke-width="2.2"><line x1="97" y1="304" x2="97" y2="350"/><line x1="82" y1="327" x2="112" y2="327"/></g></g>
<g><rect x="82" y="486" width="44" height="74" rx="3" fill="url(#steel)" stroke="#5f625e" stroke-width="1.5"/><rect x="88" y="492" width="32" height="68" fill="#b1402a"/><line x1="104" y1="492" x2="104" y2="560" stroke="#7a1f16" stroke-width="1.2"/></g>
<path d="M 42 560 L 52 542 Q 90 548 105 544 Q 145 548 168 542 L 168 560 Z" fill="url(#steel)" stroke="#5f625e" stroke-width="1.5"/>
</svg>
