<svg xmlns="http://www.w3.org/2000/svg" viewBox="0 0 300 600" width="300" height="600">
<defs>
<linearGradient id="slate" x1="0" y1="0" x2="1" y2="0"><stop offset="0" stop-color="#6c7686"/><stop offset="0.5" stop-color="#9aa4b2"/><stop offset="1" stop-color="#6c7686"/></linearGradient>
<linearGradient id="slate2" x1="0" y1="0" x2="1" y2="0"><stop offset="0" stop-color="#626c7c"/><stop offset="0.5" stop-color="#8e98a6"/><stop offset="1" stop-color="#626c7c"/></linearGradient>
<linearGradient id="steel" x1="0" y1="0" x2="1" y2="0"><stop offset="0" stop-color="#828891"/><stop offset="0.5" stop-color="#c9ced3"/><stop offset="1" stop-color="#828891"/></linearGradient>
<linearGradient id="dome" x1="0" y1="0" x2="1" y2="0"><stop offset="0" stop-color="#717b8a"/><stop offset="0.5" stop-color="#aab3c0"/><stop offset="1" stop-color="#6a7482"/></linearGradient>
<linearGradient id="glass" x1="0" y1="0" x2="1" y2="1"><stop offset="0" stop-color="#c4d2da"/><stop offset="1" stop-color="#7c8b96"/></linearGradient>
</defs>
<line x1="0" y1="560" x2="300" y2="560" stroke="#b4b6b3" stroke-width="2"/>
<!-- left smaller slate tower (red dome) -->
<path d="M 30 560 L 28 230 Q 64 224 100 230 L 98 560 Z" fill="url(#slate2)" stroke="#444b57" stroke-width="1.5"/>
<path d="M 28 232 Q 64 204 100 232 Z" fill="#b8442f" stroke="#5e1c12" stroke-width="1.5"/>
<g><rect x="44" y="270" width="38" height="34" rx="2" fill="#d07a2c" stroke="#8a5316" stroke-width="1.6"/><g stroke="#8a5316" stroke-width="2"><line x1="48" y1="278" x2="78" y2="278"/><line x1="48" y1="286" x2="78" y2="286"/><line x1="48" y1="294" x2="78" y2="294"/></g></g>
<!-- main slate house complex (right) -->
<path d="M 96 560 C 100 500 110 360 114 300 L 116 232 Q 196 222 276 232 L 278 300 C 282 360 288 500 292 560 Z" fill="url(#slate)" stroke="#444b57" stroke-width="1.5"/>
<!-- big shallow dome on top -->
<path d="M 112 234 Q 196 178 280 234 Z" fill="url(#dome)" stroke="#444b57" stroke-width="1.5"/>
<ellipse cx="160" cy="212" rx="34" ry="9" fill="#ffffff" opacity="0.16"/>
<!-- rooftop machinery (vents + small dome) -->
<rect x="150" y="188" width="20" height="16" rx="3" fill="url(#steel)" stroke="#5f625e" stroke-width="1"/>
<ellipse cx="212" cy="196" rx="14" ry="9" fill="url(#dome)" stroke="#444b57" stroke-width="1"/>
<line x1="196" y1="180" x2="196" y2="160" stroke="#6a7079" stroke-width="2.2"/><circle cx="196" cy="159" r="2.2" fill="#787e86"/>
<!-- arched/oval windows -->
<g><path d="M 130 320 L 130 270 A 22 22 0 0 1 174 270 L 174 320 Z" fill="#e8e8e2" stroke="#7e817c" stroke-width="1.5"/><path d="M 135 272 A 17 17 0 0 1 169 272 L 169 316 L 135 316 Z" fill="url(#glass)"/><line x1="152" y1="255" x2="152" y2="316" stroke="#e8e8e2" stroke-width="2.2"/></g>
<g><path d="M 198 320 L 198 270 A 22 22 0 0 1 242 270 L 242 320 Z" fill="#e8e8e2" stroke="#7e817c" stroke-width="1.5"/><path d="M 203 272 A 17 17 0 0 1 237 272 L 237 316 L 203 316 Z" fill="url(#glass)"/><line x1="220" y1="255" x2="220" y2="316" stroke="#e8e8e2" stroke-width="2.2"/></g>
<g><ellipse cx="164" cy="400" rx="24" ry="18" fill="#e8e8e2" stroke="#7e817c" stroke-width="1.5"/><ellipse cx="164" cy="400" rx="19" ry="13" fill="url(#glass)"/><line x1="164" y1="383" x2="164" y2="417" stroke="#e8e8e2" stroke-width="2"/><line x1="145" y1="400" x2="183" y2="400" stroke="#e8e8e2" stroke-width="2"/></g>
<!-- pipe -->
<path d="M 256 320 L 256 250 Q 256 244 250 244" fill="none" stroke="#5e6573" stroke-width="5"/><path d="M 256 320 L 258 522" fill="none" stroke="url(#steel)" stroke-width="5"/>
<!-- door -->
<g><rect x="196" y="476" width="48" height="84" rx="3" fill="url(#steel)" stroke="#5f625e" stroke-width="1.5"/><rect x="202" y="482" width="36" height="78" fill="#465062"/><line x1="220" y1="482" x2="220" y2="560" stroke="#2e3540" stroke-width="1.2"/></g>
<!-- foot -->
<path d="M 26 560 L 36 542 Q 70 547 100 544 L 98 560 Z" fill="url(#steel)" stroke="#5f625e" stroke-width="1.2"/>
<path d="M 92 560 L 102 542 Q 160 548 200 544 Q 250 548 286 542 L 296 560 Z" fill="url(#steel)" stroke="#5f625e" stroke-width="1.5"/>
</svg>
