<svg xmlns="http://www.w3.org/2000/svg" viewBox="0 0 240 600" width="240" height="600">
<defs>
<linearGradient id="white" x1="0" y1="0" x2="1" y2="0"><stop offset="0" stop-color="#a9aca8"/><stop offset="0.5" stop-color="#dadbd5"/><stop offset="1" stop-color="#a9aca8"/></linearGradient>
<linearGradient id="steel" x1="0" y1="0" x2="1" y2="0"><stop offset="0" stop-color="#828891"/><stop offset="0.5" stop-color="#c9ced3"/><stop offset="1" stop-color="#828891"/></linearGradient>
<linearGradient id="dome" x1="0" y1="0" x2="1" y2="0"><stop offset="0" stop-color="#717b8a"/><stop offset="0.5" stop-color="#aab3c0"/><stop offset="1" stop-color="#6a7482"/></linearGradient>
<linearGradient id="slate" x1="0" y1="0" x2="1" y2="0"><stop offset="0" stop-color="#7e8794"/><stop offset="0.5" stop-color="#aab3bf"/><stop offset="1" stop-color="#7e8794"/></linearGradient>
<linearGradient id="glass" x1="0" y1="0" x2="1" y2="1"><stop offset="0" stop-color="#c4d2da"/><stop offset="1" stop-color="#7c8b96"/></linearGradient>
</defs>
<line x1="0" y1="560" x2="240" y2="560" stroke="#b4b6b3" stroke-width="2"/>
<!-- pipe -->
<path d="M 172 300 L 172 220 Q 172 214 166 214" fill="none" stroke="#6a7079" stroke-width="5"/><path d="M 172 300 L 174 522" fill="none" stroke="url(#steel)" stroke-width="5"/><rect x="167" y="420" width="10" height="6" fill="#5a6066"/>
<!-- white tower -->
<path d="M 50 560 C 56 502 68 320 72 250 L 74 160 Q 122 153 170 160 L 172 250 C 176 320 188 502 194 560 Z" fill="url(#white)" stroke="#5f625e" stroke-width="1.5"/>
<line x1="72" y1="370" x2="172" y2="370" stroke="#7d807c" stroke-width="1"/>
<!-- slate dome + deck -->
<rect x="66" y="136" width="112" height="13" rx="3" fill="url(#steel)" stroke="#5f625e" stroke-width="1.5"/>
<path d="M 70 138 Q 70 104 122 98 Q 174 104 174 138 Z" fill="url(#dome)" stroke="#444b57" stroke-width="1.5"/>
<ellipse cx="100" cy="118" rx="20" ry="7" fill="#ffffff" opacity="0.18"/>
<!-- autocannon -->
<g>
<rect x="106" y="84" width="30" height="14" rx="3" fill="#3a3f44" stroke="#23262a" stroke-width="1"/>
<path d="M 110 90 L 140 79 L 130 58 L 100 69 Z" fill="#4a5057" stroke="#23262a" stroke-width="1.2"/>
<ellipse cx="106" cy="70" rx="9" ry="7" fill="#3a3f44" stroke="#23262a" stroke-width="1"/>
<g stroke="#3a3f44" stroke-width="5" stroke-linecap="round"><line x1="120" y1="74" x2="184" y2="36"/><line x1="124" y1="81" x2="188" y2="43"/><line x1="116" y1="67" x2="180" y2="29"/></g>
<path d="M 178 44 L 194 28 L 188 23 L 172 39 Z" fill="#4a5057" stroke="#23262a" stroke-width="1"/>
<path d="M 100 79 C 84 77 82 63 94 59" fill="none" stroke="#6a7079" stroke-width="3.5"/>
</g>
<!-- projecting bay window (upper-left) -->
<g>
<rect x="44" y="184" width="56" height="68" rx="3" fill="url(#slate)" stroke="#444b57" stroke-width="1.5"/>
<rect x="50" y="192" width="44" height="46" rx="2" fill="#e8e8e2" stroke="#7e817c" stroke-width="1.5"/><rect x="54" y="196" width="36" height="38" fill="url(#glass)"/><g stroke="#e8e8e2" stroke-width="2.4"><line x1="72" y1="196" x2="72" y2="234"/><line x1="54" y1="215" x2="90" y2="215"/></g>
<line x1="44" y1="246" x2="100" y2="246" stroke="#586273" stroke-width="2"/>
</g>
<!-- window -->
<g><rect x="120" y="200" width="40" height="54" rx="2" fill="#e8e8e2" stroke="#7e817c" stroke-width="1.5"/><rect x="124" y="204" width="32" height="46" fill="url(#glass)"/><g stroke="#e8e8e2" stroke-width="2.2"><line x1="140" y1="204" x2="140" y2="250"/><line x1="124" y1="227" x2="156" y2="227"/></g></g>
<!-- door -->
<g><rect x="98" y="474" width="48" height="86" rx="4" fill="url(#steel)" stroke="#5f625e" stroke-width="1.5"/><path d="M 104 560 L 104 504 A 18 18 0 0 1 140 504 L 140 560 Z" fill="#9a93a8" stroke="#5f5a6a" stroke-width="1.2"/><line x1="122" y1="510" x2="122" y2="560" stroke="#5f5a6a" stroke-width="1.2"/></g>
<!-- foot -->
<path d="M 46 560 L 56 542 Q 94 548 130 544 Q 170 548 198 542 L 198 560 Z" fill="url(#steel)" stroke="#5f625e" stroke-width="1.5"/>
</svg>
