<svg xmlns="http://www.w3.org/2000/svg" viewBox="0 0 230 600" width="230" height="600">
<defs>
<linearGradient id="white" x1="0" y1="0" x2="1" y2="0"><stop offset="0" stop-color="#a9aca8"/><stop offset="0.5" stop-color="#d9dad4"/><stop offset="1" stop-color="#a9aca8"/></linearGradient>
<linearGradient id="steel" x1="0" y1="0" x2="1" y2="0"><stop offset="0" stop-color="#828891"/><stop offset="0.5" stop-color="#c9ced3"/><stop offset="1" stop-color="#828891"/></linearGradient>
<linearGradient id="dome" x1="0" y1="0" x2="1" y2="0"><stop offset="0" stop-color="#8b94a0"/><stop offset="0.5" stop-color="#c2cad4"/><stop offset="1" stop-color="#828b98"/></linearGradient>
<linearGradient id="glass" x1="0" y1="0" x2="1" y2="1"><stop offset="0" stop-color="#c4d2da"/><stop offset="1" stop-color="#7c8b96"/></linearGradient>
</defs>
<line x1="0" y1="560" x2="230" y2="560" stroke="#b4b6b3" stroke-width="2"/>
<path d="M 164 320 L 162 522" fill="none" stroke="url(#steel)" stroke-width="5"/>
<path d="M 60 330 L 58 522" fill="none" stroke="url(#steel)" stroke-width="5"/>
<!-- stout white tower -->
<path d="M 44 560 C 50 502 62 360 66 300 L 68 168 Q 116 160 164 168 L 166 300 C 170 360 182 502 188 560 Z" fill="url(#white)" stroke="#5f625e" stroke-width="1.5"/>
<line x1="68" y1="400" x2="164" y2="400" stroke="#7d807c" stroke-width="1"/>
<rect x="62" y="158" width="108" height="13" rx="3" fill="url(#steel)" stroke="#5f625e" stroke-width="1.5"/>
<path d="M 66 160 Q 116 124 166 160 Z" fill="url(#dome)" stroke="#444b57" stroke-width="1.5"/>
<!-- gun -->
<g>
<rect x="102" y="104" width="28" height="13" rx="3" fill="#3a3f44" stroke="#23262a" stroke-width="1"/>
<g stroke="#3a3f44" stroke-width="4.6" stroke-linecap="round"><line x1="116" y1="110" x2="176" y2="74"/><line x1="120" y1="117" x2="180" y2="81"/></g>
<path d="M 172 80 L 188 64 L 182 59 L 166 75 Z" fill="#4a5057" stroke="#23262a" stroke-width="1"/>
<ellipse cx="106" cy="110" rx="8" ry="6" fill="#3a3f44" stroke="#23262a" stroke-width="1"/>
</g>
<!-- bay left -->
<g>
<path d="M 40 240 L 38 308 C 42 320 76 320 80 308 L 78 240 Z" fill="url(#white)" stroke="#5f625e" stroke-width="1.5"/>
<path d="M 38 242 Q 58 224 80 242 Z" fill="url(#steel)" stroke="#5f625e" stroke-width="1.2"/>
<rect x="46" y="256" width="26" height="44" rx="2" fill="#e8e8e2" stroke="#7e817c" stroke-width="1.4"/><rect x="50" y="260" width="18" height="36" fill="url(#glass)"/><line x1="50" y1="277" x2="68" y2="277" stroke="#e8e8e2" stroke-width="2"/></g>
<g><rect x="104" y="206" width="40" height="56" rx="2" fill="#e8e8e2" stroke="#7e817c" stroke-width="1.5"/><rect x="108" y="210" width="32" height="48" fill="url(#glass)"/><g stroke="#e8e8e2" stroke-width="2.2"><line x1="124" y1="210" x2="124" y2="258"/><line x1="108" y1="234" x2="140" y2="234"/></g></g>
<g><rect x="98" y="320" width="40" height="56" rx="2" fill="#e8e8e2" stroke="#7e817c" stroke-width="1.5"/><rect x="102" y="324" width="32" height="48" fill="url(#glass)"/><g stroke="#e8e8e2" stroke-width="2.2"><line x1="118" y1="324" x2="118" y2="372"/><line x1="102" y1="348" x2="134" y2="348"/></g></g>
<g><rect x="92" y="486" width="46" height="74" rx="3" fill="url(#steel)" stroke="#5f625e" stroke-width="1.5"/><rect x="98" y="492" width="34" height="68" fill="#465062"/><line x1="115" y1="492" x2="115" y2="560" stroke="#2e3540" stroke-width="1.2"/></g>
<path d="M 40 560 L 50 542 Q 90 548 116 544 Q 156 548 188 542 L 190 560 Z" fill="url(#steel)" stroke="#5f625e" stroke-width="1.5"/>
</svg>
