<svg xmlns="http://www.w3.org/2000/svg" viewBox="0 0 240 600" width="240" height="600">
<defs>
<linearGradient id="slate" x1="0" y1="0" x2="1" y2="0"><stop offset="0" stop-color="#6c7686"/><stop offset="0.5" stop-color="#9aa4b2"/><stop offset="1" stop-color="#6c7686"/></linearGradient>
<linearGradient id="steel" x1="0" y1="0" x2="1" y2="0"><stop offset="0" stop-color="#828891"/><stop offset="0.5" stop-color="#c9ced3"/><stop offset="1" stop-color="#828891"/></linearGradient>
<radialGradient id="rdome" cx="0.36" cy="0.3" r="0.9"><stop offset="0" stop-color="#d6543c"/><stop offset="1" stop-color="#85291a"/></radialGradient>
<linearGradient id="glass" x1="0" y1="0" x2="1" y2="1"><stop offset="0" stop-color="#c4d2da"/><stop offset="1" stop-color="#7c8b96"/></linearGradient>
</defs>
<line x1="0" y1="560" x2="240" y2="560" stroke="#b4b6b3" stroke-width="2"/>
<path d="M 64 330 L 62 522" fill="none" stroke="url(#steel)" stroke-width="5"/>
<!-- stout slate tower -->
<path d="M 44 560 C 50 502 60 360 64 300 L 66 168 Q 120 160 174 168 L 176 300 C 180 360 190 502 196 560 Z" fill="url(#slate)" stroke="#444b57" stroke-width="1.5"/>
<line x1="66" y1="400" x2="174" y2="400" stroke="#586273" stroke-width="1"/>
<rect x="60" y="154" width="120" height="13" rx="3" fill="url(#steel)" stroke="#5f625e" stroke-width="1.5"/>
<path d="M 64 156 Q 64 122 120 114 Q 176 122 176 156 Z" fill="url(#rdome)" stroke="#5e1c12" stroke-width="1.5"/>
<ellipse cx="96" cy="134" rx="22" ry="7" fill="#ffffff" opacity="0.16"/>
<!-- projecting bay right -->
<g>
<path d="M 150 230 L 148 300 C 152 312 188 312 192 300 L 190 230 Z" fill="url(#slate)" stroke="#444b57" stroke-width="1.5"/>
<path d="M 148 232 Q 170 214 192 232 Z" fill="url(#steel)" stroke="#444b57" stroke-width="1.2"/>
<rect x="156" y="246" width="28" height="46" rx="2" fill="#e8e8e2" stroke="#7e817c" stroke-width="1.4"/><rect x="160" y="250" width="20" height="38" fill="url(#glass)"/><line x1="160" y1="269" x2="180" y2="269" stroke="#e8e8e2" stroke-width="2"/></g>
<g><rect x="80" y="206" width="40" height="56" rx="2" fill="#e8e8e2" stroke="#7e817c" stroke-width="1.5"/><rect x="84" y="210" width="32" height="48" fill="url(#glass)"/><g stroke="#e8e8e2" stroke-width="2.2"><line x1="100" y1="210" x2="100" y2="258"/><line x1="84" y1="234" x2="116" y2="234"/></g></g>
<g><rect x="80" y="320" width="40" height="56" rx="2" fill="#e8e8e2" stroke="#7e817c" stroke-width="1.5"/><rect x="84" y="324" width="32" height="48" fill="url(#glass)"/><g stroke="#e8e8e2" stroke-width="2.2"><line x1="100" y1="324" x2="100" y2="372"/><line x1="84" y1="348" x2="116" y2="348"/></g></g>
<g><rect x="96" y="474" width="48" height="86" rx="4" fill="url(#steel)" stroke="#5f625e" stroke-width="1.5"/><path d="M 102 560 L 102 504 A 18 18 0 0 1 138 504 L 138 560 Z" fill="#b1402a" stroke="#7a1f16" stroke-width="1.5"/><line x1="120" y1="510" x2="120" y2="560" stroke="#7a1f16" stroke-width="1.2"/></g>
<path d="M 40 560 L 50 542 Q 90 548 120 544 Q 160 548 200 542 L 200 560 Z" fill="url(#steel)" stroke="#5f625e" stroke-width="1.5"/>
</svg>
