<svg xmlns="http://www.w3.org/2000/svg" viewBox="0 0 220 600" width="220" height="600">
<defs>
<linearGradient id="yellow" x1="0" y1="0" x2="1" y2="0"><stop offset="0" stop-color="#c79434"/><stop offset="0.5" stop-color="#e7bd54"/><stop offset="1" stop-color="#c79434"/></linearGradient>
<linearGradient id="steel" x1="0" y1="0" x2="1" y2="0"><stop offset="0" stop-color="#828891"/><stop offset="0.5" stop-color="#c9ced3"/><stop offset="1" stop-color="#828891"/></linearGradient>
<linearGradient id="dome" x1="0" y1="0" x2="1" y2="0"><stop offset="0" stop-color="#8b94a0"/><stop offset="0.5" stop-color="#c2cad4"/><stop offset="1" stop-color="#828b98"/></linearGradient>
<linearGradient id="glass" x1="0" y1="0" x2="1" y2="1"><stop offset="0" stop-color="#c4d2da"/><stop offset="1" stop-color="#7c8b96"/></linearGradient>
</defs>
<line x1="0" y1="560" x2="220" y2="560" stroke="#b4b6b3" stroke-width="2"/>
<!-- cream/yellow tower -->
<path d="M 46 560 C 52 502 64 330 68 268 L 70 168 Q 110 161 150 168 L 152 268 C 156 330 168 502 174 560 Z" fill="url(#yellow)" stroke="#7a5a16" stroke-width="1.5"/>
<line x1="68" y1="380" x2="152" y2="380" stroke="#9a7420" stroke-width="1"/>
<!-- shallow dome + deck -->
<rect x="62" y="154" width="96" height="12" rx="3" fill="url(#steel)" stroke="#5f625e" stroke-width="1.5"/>
<path d="M 66 156 Q 110 122 154 156 Z" fill="url(#dome)" stroke="#444b57" stroke-width="1.5"/>
<line x1="110" y1="128" x2="110" y2="104" stroke="#6a7079" stroke-width="2"/><circle cx="110" cy="103" r="2.2" fill="#787e86"/>
<g><rect x="78" y="200" width="38" height="50" rx="2" fill="#e8e8e2" stroke="#7e817c" stroke-width="1.5"/><rect x="82" y="204" width="30" height="42" fill="url(#glass)"/><g stroke="#e8e8e2" stroke-width="2.2"><line x1="97" y1="204" x2="97" y2="246"/><line x1="82" y1="225" x2="112" y2="225"/></g></g>
<g><rect x="78" y="296" width="38" height="50" rx="2" fill="#e8e8e2" stroke="#7e817c" stroke-width="1.5"/><rect x="82" y="300" width="30" height="42" fill="url(#glass)"/><g stroke="#e8e8e2" stroke-width="2.2"><line x1="97" y1="300" x2="97" y2="342"/><line x1="82" y1="321" x2="112" y2="321"/></g></g>
<g><rect x="84" y="486" width="44" height="74" rx="3" fill="url(#steel)" stroke="#5f625e" stroke-width="1.5"/><rect x="90" y="492" width="32" height="68" fill="#b1402a"/><line x1="106" y1="492" x2="106" y2="560" stroke="#7a1f16" stroke-width="1.2"/></g>
<path d="M 42 560 L 52 542 Q 90 548 110 544 Q 150 548 178 542 L 178 560 Z" fill="url(#steel)" stroke="#5f625e" stroke-width="1.5"/>
</svg>
