<svg xmlns="http://www.w3.org/2000/svg" viewBox="0 0 200 600" width="200" height="600">
<defs>
<linearGradient id="o" x1="0" y1="0" x2="1" y2="0"><stop offset="0" stop-color="#b85e16"/><stop offset="0.5" stop-color="#e88f2c"/><stop offset="1" stop-color="#b85e16"/></linearGradient>
<linearGradient id="steel" x1="0" y1="0" x2="1" y2="0"><stop offset="0" stop-color="#828891"/><stop offset="0.5" stop-color="#c9ced3"/><stop offset="1" stop-color="#828891"/></linearGradient>
<linearGradient id="dome" x1="0" y1="0" x2="1" y2="0"><stop offset="0" stop-color="#717b8a"/><stop offset="0.5" stop-color="#aab3c0"/><stop offset="1" stop-color="#6a7482"/></linearGradient>
<linearGradient id="white" x1="0" y1="0" x2="1" y2="0"><stop offset="0" stop-color="#aeb1ad"/><stop offset="0.5" stop-color="#dcdcd7"/><stop offset="1" stop-color="#aeb1ad"/></linearGradient>
<linearGradient id="glass" x1="0" y1="0" x2="1" y2="1"><stop offset="0" stop-color="#c4d2da"/><stop offset="1" stop-color="#7c8b96"/></linearGradient>
</defs>
<line x1="0" y1="560" x2="200" y2="560" stroke="#b4b6b3" stroke-width="2"/>
<!-- pipe -->
<path d="M 150 280 L 150 200 Q 150 194 144 194" fill="none" stroke="#6a7079" stroke-width="5"/><path d="M 150 280 L 152 522" fill="none" stroke="url(#steel)" stroke-width="5"/><rect x="145" y="400" width="10" height="6" fill="#5a6066"/>
<!-- orange cylinder + flared base -->
<path d="M 44 560 C 50 502 58 320 60 250 L 62 158 Q 100 151 138 158 L 140 250 C 142 320 150 502 156 560 Z" fill="url(#o)" stroke="#6a3a0d" stroke-width="1.5"/>
<line x1="60" y1="360" x2="140" y2="360" stroke="#8a5316" stroke-width="1"/>
<!-- slate dome + deck -->
<rect x="56" y="134" width="88" height="12" rx="3" fill="url(#steel)" stroke="#5f625e" stroke-width="1.5"/>
<path d="M 60 136 Q 60 102 100 96 Q 140 102 140 136 Z" fill="url(#dome)" stroke="#444b57" stroke-width="1.5"/>
<ellipse cx="84" cy="116" rx="16" ry="6" fill="#ffffff" opacity="0.18"/>
<line x1="100" y1="98" x2="100" y2="74" stroke="#6a7079" stroke-width="2"/><circle cx="100" cy="73" r="2.2" fill="#787e86"/>
<!-- windows -->
<g><rect x="80" y="186" width="38" height="56" rx="2" fill="#e8e8e2" stroke="#7e817c" stroke-width="1.5"/><rect x="84" y="190" width="30" height="48" fill="url(#glass)"/><g stroke="#e8e8e2" stroke-width="2.2"><line x1="99" y1="190" x2="99" y2="238"/><line x1="84" y1="214" x2="114" y2="214"/></g></g>
<g><rect x="80" y="290" width="38" height="56" rx="2" fill="#e8e8e2" stroke="#7e817c" stroke-width="1.5"/><rect x="84" y="294" width="30" height="48" fill="url(#glass)"/><g stroke="#e8e8e2" stroke-width="2.2"><line x1="99" y1="294" x2="99" y2="342"/><line x1="84" y1="318" x2="114" y2="318"/></g></g>
<!-- door -->
<g><rect x="78" y="486" width="44" height="74" rx="3" fill="url(#steel)" stroke="#5f625e" stroke-width="1.5"/><rect x="84" y="492" width="32" height="68" fill="#b1402a"/><line x1="100" y1="492" x2="100" y2="560" stroke="#7a1f16" stroke-width="1.2"/></g>
<!-- foot -->
<path d="M 40 560 L 50 542 Q 86 548 122 544 Q 158 548 160 542 L 166 560 Z" fill="url(#steel)" stroke="#5f625e" stroke-width="1.5"/>
</svg>
