<svg xmlns="http://www.w3.org/2000/svg" viewBox="0 0 230 600" width="230" height="600">
<defs>
<linearGradient id="white" x1="0" y1="0" x2="1" y2="0"><stop offset="0" stop-color="#a9aca8"/><stop offset="0.5" stop-color="#d9dad4"/><stop offset="1" stop-color="#a9aca8"/></linearGradient>
<linearGradient id="red" x1="0" y1="0" x2="1" y2="0"><stop offset="0" stop-color="#b04020"/><stop offset="0.5" stop-color="#db6238"/><stop offset="1" stop-color="#b04020"/></linearGradient>
<radialGradient id="rdome" cx="0.36" cy="0.3" r="0.9"><stop offset="0" stop-color="#db6238"/><stop offset="1" stop-color="#882c18"/></radialGradient>
<linearGradient id="steel" x1="0" y1="0" x2="1" y2="0"><stop offset="0" stop-color="#828891"/><stop offset="0.5" stop-color="#c9ced3"/><stop offset="1" stop-color="#828891"/></linearGradient>
<linearGradient id="glass" x1="0" y1="0" x2="1" y2="1"><stop offset="0" stop-color="#c4d2da"/><stop offset="1" stop-color="#7c8b96"/></linearGradient>
</defs>
<line x1="0" y1="560" x2="230" y2="560" stroke="#b4b6b3" stroke-width="2"/>
<!-- pipes -->
<path d="M 168 320 L 168 240 Q 168 234 162 234" fill="none" stroke="#6a7079" stroke-width="5"/><path d="M 168 320 L 170 522" fill="none" stroke="url(#steel)" stroke-width="5"/><rect x="163" y="430" width="10" height="6" fill="#5a6066"/>
<path d="M 58 330 L 56 522" fill="none" stroke="url(#steel)" stroke-width="5"/>
<!-- white tower -->
<path d="M 48 560 C 54 502 66 340 70 280 L 72 200 Q 116 192 160 200 L 162 280 C 166 340 178 502 184 560 Z" fill="url(#white)" stroke="#5f625e" stroke-width="1.5"/>
<line x1="70" y1="400" x2="162" y2="400" stroke="#7d807c" stroke-width="1"/>
<!-- steel cap deck on white -->
<rect x="68" y="190" width="96" height="12" rx="3" fill="url(#steel)" stroke="#5f625e" stroke-width="1.5"/>
<!-- big red corbelled bay (rounded box) with windows + red cap -->
<g>
<path d="M 64 250 L 60 150 Q 116 138 172 150 L 168 250 C 150 268 82 268 64 250 Z" fill="url(#red)" stroke="#6a2614" stroke-width="1.8"/>
<path d="M 60 152 Q 116 120 172 152 Z" fill="url(#rdome)" stroke="#6a2614" stroke-width="1.5"/>
<rect x="74" y="168" width="36" height="56" rx="2" fill="#e8e8e2" stroke="#7e817c" stroke-width="1.5"/><rect x="78" y="172" width="28" height="48" fill="url(#glass)"/><g stroke="#e8e8e2" stroke-width="2.2"><line x1="92" y1="172" x2="92" y2="220"/><line x1="78" y1="196" x2="106" y2="196"/></g>
<rect x="122" y="168" width="36" height="56" rx="2" fill="#e8e8e2" stroke="#7e817c" stroke-width="1.5"/><rect x="126" y="172" width="28" height="48" fill="url(#glass)"/><g stroke="#e8e8e2" stroke-width="2.2"><line x1="140" y1="172" x2="140" y2="220"/><line x1="126" y1="196" x2="154" y2="196"/></g>
</g>
<!-- lower window -->
<g><rect x="96" y="330" width="40" height="50" rx="2" fill="#e8e8e2" stroke="#7e817c" stroke-width="1.5"/><rect x="100" y="334" width="32" height="42" fill="url(#glass)"/><g stroke="#e8e8e2" stroke-width="2.2"><line x1="116" y1="334" x2="116" y2="376"/><line x1="100" y1="355" x2="132" y2="355"/></g></g>
<!-- red arched door -->
<g><rect x="92" y="470" width="48" height="90" rx="4" fill="url(#steel)" stroke="#5f625e" stroke-width="1.5"/><path d="M 98 560 L 98 500 A 20 20 0 0 1 134 500 L 134 560 Z" fill="#b1402a" stroke="#7a1f16" stroke-width="1.5"/><ellipse cx="116" cy="508" rx="8" ry="6" fill="url(#glass)" stroke="#7a1f16" stroke-width="1.2"/><line x1="116" y1="518" x2="116" y2="560" stroke="#7a1f16" stroke-width="1.2"/></g>
<path d="M 44 560 L 54 542 Q 92 548 116 544 Q 156 548 184 542 L 188 560 Z" fill="url(#steel)" stroke="#5f625e" stroke-width="1.5"/>
</svg>
