<svg xmlns="http://www.w3.org/2000/svg" viewBox="0 0 200 600" width="200" height="600">
<defs>
<linearGradient id="white" x1="0" y1="0" x2="1" y2="0"><stop offset="0" stop-color="#a9aca8"/><stop offset="0.5" stop-color="#d9dad4"/><stop offset="1" stop-color="#a9aca8"/></linearGradient>
<linearGradient id="steel" x1="0" y1="0" x2="1" y2="0"><stop offset="0" stop-color="#828891"/><stop offset="0.5" stop-color="#c9ced3"/><stop offset="1" stop-color="#828891"/></linearGradient>
<linearGradient id="dome" x1="0" y1="0" x2="1" y2="0"><stop offset="0" stop-color="#8b94a0"/><stop offset="0.5" stop-color="#c2cad4"/><stop offset="1" stop-color="#828b98"/></linearGradient>
<linearGradient id="glass" x1="0" y1="0" x2="1" y2="1"><stop offset="0" stop-color="#c4d2da"/><stop offset="1" stop-color="#7c8b96"/></linearGradient>
</defs>
<line x1="0" y1="560" x2="200" y2="560" stroke="#b4b6b3" stroke-width="2"/>
<path d="M 150 290 L 150 210 Q 150 204 144 204" fill="none" stroke="#6a7079" stroke-width="5"/><path d="M 150 290 L 152 522" fill="none" stroke="url(#steel)" stroke-width="5"/><rect x="145" y="410" width="10" height="6" fill="#5a6066"/>
<!-- grey tower -->
<path d="M 42 560 C 48 502 58 320 62 250 L 64 156 Q 100 149 136 156 L 138 250 C 142 320 152 502 158 560 Z" fill="url(#white)" stroke="#5f625e" stroke-width="1.5"/>
<line x1="62" y1="370" x2="138" y2="370" stroke="#7d807c" stroke-width="1"/>
<!-- steel dome + deck -->
<rect x="56" y="142" width="84" height="12" rx="3" fill="url(#steel)" stroke="#5f625e" stroke-width="1.5"/>
<path d="M 60 144 Q 60 112 98 106 Q 136 112 136 144 Z" fill="url(#dome)" stroke="#444b57" stroke-width="1.5"/>
<ellipse cx="80" cy="124" rx="15" ry="6" fill="#ffffff" opacity="0.18"/>
<!-- projecting bay window -->
<g>
<path d="M 36 240 L 34 304 C 38 316 70 316 74 304 L 72 240 Z" fill="url(#white)" stroke="#5f625e" stroke-width="1.5"/>
<path d="M 34 242 Q 54 224 74 242 Z" fill="url(#steel)" stroke="#5f625e" stroke-width="1.2"/>
<rect x="42" y="256" width="26" height="42" rx="2" fill="#e8e8e2" stroke="#7e817c" stroke-width="1.4"/><rect x="46" y="260" width="18" height="34" fill="url(#glass)"/><line x1="46" y1="277" x2="64" y2="277" stroke="#e8e8e2" stroke-width="2"/>
</g>
<g><rect x="94" y="200" width="36" height="52" rx="2" fill="#e8e8e2" stroke="#7e817c" stroke-width="1.5"/><rect x="98" y="204" width="28" height="44" fill="url(#glass)"/><g stroke="#e8e8e2" stroke-width="2.2"><line x1="112" y1="204" x2="112" y2="248"/><line x1="98" y1="226" x2="126" y2="226"/></g></g>
<g><rect x="80" y="486" width="42" height="74" rx="3" fill="url(#steel)" stroke="#5f625e" stroke-width="1.5"/><rect x="86" y="492" width="30" height="68" fill="#465062"/><line x1="101" y1="492" x2="101" y2="560" stroke="#2e3540" stroke-width="1.2"/></g>
<path d="M 38 560 L 48 542 Q 86 548 100 544 Q 140 548 156 542 L 158 560 Z" fill="url(#steel)" stroke="#5f625e" stroke-width="1.5"/>
</svg>
