<svg xmlns="http://www.w3.org/2000/svg" viewBox="0 0 260 600" width="260" height="600">
<defs>
<linearGradient id="white" x1="0" y1="0" x2="1" y2="0"><stop offset="0" stop-color="#aeb1ad"/><stop offset="0.5" stop-color="#dcdcd7"/><stop offset="1" stop-color="#aeb1ad"/></linearGradient>
<linearGradient id="steel" x1="0" y1="0" x2="1" y2="0"><stop offset="0" stop-color="#828891"/><stop offset="0.5" stop-color="#c9ced3"/><stop offset="1" stop-color="#828891"/></linearGradient>
<linearGradient id="glass" x1="0" y1="0" x2="1" y2="1"><stop offset="0" stop-color="#c4d2da"/><stop offset="1" stop-color="#7c8b96"/></linearGradient>
</defs>
<line x1="0" y1="560" x2="260" y2="560" stroke="#b4b6b3" stroke-width="2"/>
<!-- pipe -->
<path d="M 188 300 L 188 230 Q 188 224 182 224" fill="none" stroke="#6a7079" stroke-width="5"/><path d="M 188 300 L 190 522" fill="none" stroke="url(#steel)" stroke-width="5"/><rect x="183" y="420" width="10" height="6" fill="#5a6066"/>
<!-- white tower -->
<path d="M 50 560 C 56 500 70 300 74 252 L 76 176 Q 130 169 184 176 L 186 252 C 190 300 204 500 210 560 Z" fill="url(#white)" stroke="#5f625e" stroke-width="1.5"/>
<line x1="74" y1="380" x2="186" y2="380" stroke="#7d807c" stroke-width="1"/>
<!-- shallow steel dome + deck -->
<rect x="68" y="150" width="124" height="12" rx="3" fill="url(#steel)" stroke="#5f625e" stroke-width="1.5"/>
<path d="M 70 152 Q 130 112 190 152 Z" fill="url(#steel)" stroke="#5f625e" stroke-width="1.5"/>
<ellipse cx="108" cy="134" rx="26" ry="7" fill="#ffffff" opacity="0.2"/>
<line x1="130" y1="118" x2="130" y2="92" stroke="#6a7079" stroke-width="2.2"/><circle cx="130" cy="91" r="2.4" fill="#787e86"/>
<!-- bay window upper-left (boxy, projecting) -->
<g>
<rect x="44" y="184" width="62" height="74" rx="2" fill="url(#white)" stroke="#5f625e" stroke-width="1.5"/>
<rect x="50" y="192" width="50" height="50" rx="2" fill="#e8e8e2" stroke="#7e817c" stroke-width="1.5"/><rect x="54" y="196" width="42" height="42" fill="url(#glass)"/><g stroke="#e8e8e2" stroke-width="2.4"><line x1="75" y1="196" x2="75" y2="238"/><line x1="54" y1="217" x2="96" y2="217"/></g>
<line x1="44" y1="250" x2="106" y2="250" stroke="#6a7079" stroke-width="2"/><g stroke="#6a7079" stroke-width="1.4"><line x1="50" y1="250" x2="50" y2="258"/><line x1="75" y1="250" x2="75" y2="258"/><line x1="100" y1="250" x2="100" y2="258"/></g>
</g>
<!-- salmon-framed window right -->
<g><rect x="146" y="200" width="44" height="54" rx="2" fill="#cf7e6a" stroke="#8a4636" stroke-width="1.8"/><rect x="150" y="204" width="36" height="46" fill="url(#glass)"/><g stroke="#cf7e6a" stroke-width="2.4"><line x1="168" y1="204" x2="168" y2="250"/><line x1="150" y1="227" x2="186" y2="227"/></g></g>
<!-- green door + red panel -->
<g><rect x="74" y="484" width="46" height="76" rx="3" fill="url(#steel)" stroke="#5f625e" stroke-width="1.5"/><rect x="80" y="490" width="34" height="70" fill="#6f9152"/><line x1="97" y1="490" x2="97" y2="560" stroke="#42592f" stroke-width="1.2"/></g>
<g><rect x="146" y="470" width="48" height="90" rx="3" fill="#b25744" stroke="#7a3527" stroke-width="1.5"/><rect x="152" y="478" width="36" height="40" fill="url(#glass)"/><g stroke="#8a4636" stroke-width="2"><line x1="170" y1="478" x2="170" y2="518"/></g><line x1="152" y1="528" x2="188" y2="528" stroke="#7a3527" stroke-width="1.2"/></g>
<!-- foot -->
<path d="M 46 560 L 56 542 Q 94 548 130 544 Q 170 548 204 542 L 214 560 Z" fill="url(#steel)" stroke="#5f625e" stroke-width="1.5"/>
</svg>
