<svg xmlns="http://www.w3.org/2000/svg" viewBox="0 0 240 600" width="240" height="600">
<defs>
<linearGradient id="slate" x1="0" y1="0" x2="1" y2="0"><stop offset="0" stop-color="#6c7686"/><stop offset="0.5" stop-color="#9aa4b2"/><stop offset="1" stop-color="#6c7686"/></linearGradient>
<linearGradient id="steel" x1="0" y1="0" x2="1" y2="0"><stop offset="0" stop-color="#828891"/><stop offset="0.5" stop-color="#c9ced3"/><stop offset="1" stop-color="#828891"/></linearGradient>
<linearGradient id="o" x1="0" y1="0" x2="1" y2="0"><stop offset="0" stop-color="#b85e16"/><stop offset="0.5" stop-color="#e88f2c"/><stop offset="1" stop-color="#b85e16"/></linearGradient>
<linearGradient id="glass" x1="0" y1="0" x2="1" y2="1"><stop offset="0" stop-color="#c4d2da"/><stop offset="1" stop-color="#7c8b96"/></linearGradient>
</defs>
<line x1="0" y1="560" x2="240" y2="560" stroke="#b4b6b3" stroke-width="2"/>
<!-- pipes -->
<path d="M 170 280 L 170 200 Q 170 194 164 194" fill="none" stroke="#5e6573" stroke-width="6"/><path d="M 170 280 L 172 522" fill="none" stroke="url(#steel)" stroke-width="6"/><rect x="165" y="400" width="11" height="6" fill="#525a66"/>
<path d="M 186 300 L 188 522" fill="none" stroke="url(#steel)" stroke-width="5"/>
<!-- slate tower -->
<path d="M 50 560 C 56 502 68 320 72 250 L 74 152 Q 120 145 166 152 L 168 250 C 172 320 184 502 190 560 Z" fill="url(#slate)" stroke="#444b57" stroke-width="1.5"/>
<line x1="72" y1="370" x2="168" y2="370" stroke="#586273" stroke-width="1"/>
<!-- deck + gun -->
<rect x="66" y="142" width="112" height="13" rx="3" fill="url(#steel)" stroke="#5f625e" stroke-width="1.5"/>
<ellipse cx="122" cy="144" rx="54" ry="7" fill="url(#steel)" stroke="#5f625e" stroke-width="1.2"/>
<g>
<rect x="110" y="124" width="30" height="14" rx="3" fill="#3a3f44" stroke="#23262a" stroke-width="1"/>
<path d="M 114 130 L 144 119 L 134 98 L 104 109 Z" fill="#4a5057" stroke="#23262a" stroke-width="1.2"/>
<ellipse cx="110" cy="110" rx="9" ry="7" fill="#3a3f44" stroke="#23262a" stroke-width="1"/>
<g stroke="#3a3f44" stroke-width="5" stroke-linecap="round"><line x1="124" y1="114" x2="186" y2="78"/><line x1="128" y1="121" x2="190" y2="85"/><line x1="120" y1="107" x2="182" y2="71"/></g>
<path d="M 182 84 L 198 68 L 192 63 L 176 79 Z" fill="#4a5057" stroke="#23262a" stroke-width="1"/>
</g>
<!-- corbel turret bay (left) w/ salmon window -->
<g>
<path d="M 40 200 L 38 268 C 42 280 74 280 78 268 L 76 200 Z" fill="url(#slate)" stroke="#444b57" stroke-width="1.5"/>
<path d="M 38 202 Q 58 184 78 202 Z" fill="url(#steel)" stroke="#444b57" stroke-width="1.2"/>
<rect x="46" y="216" width="26" height="44" rx="2" fill="#cf7e6a" stroke="#8a4636" stroke-width="1.6"/><rect x="50" y="220" width="18" height="36" fill="url(#glass)"/><line x1="50" y1="238" x2="68" y2="238" stroke="#cf7e6a" stroke-width="2.2"/>
</g>
<!-- window -->
<g><rect x="96" y="200" width="40" height="52" rx="2" fill="#e8e8e2" stroke="#7e817c" stroke-width="1.5"/><rect x="100" y="204" width="32" height="44" fill="url(#glass)"/><g stroke="#e8e8e2" stroke-width="2.2"><line x1="116" y1="204" x2="116" y2="248"/><line x1="100" y1="226" x2="132" y2="226"/></g></g>
<!-- orange base box + door -->
<rect x="52" y="470" width="44" height="90" rx="2" fill="url(#o)" stroke="#7a3d0d" stroke-width="1.5"/><line x1="52" y1="510" x2="96" y2="510" stroke="#7a3d0d" stroke-width="1"/>
<g><rect x="110" y="486" width="46" height="74" rx="3" fill="url(#steel)" stroke="#5f625e" stroke-width="1.5"/><rect x="116" y="492" width="34" height="68" fill="#465062"/><line x1="133" y1="492" x2="133" y2="560" stroke="#2e3540" stroke-width="1.2"/></g>
<!-- foot -->
<path d="M 46 560 L 56 542 Q 94 548 130 544 Q 170 548 200 542 L 196 560 Z" fill="url(#steel)" stroke="#5f625e" stroke-width="1.5"/>
</svg>
