<svg xmlns="http://www.w3.org/2000/svg" viewBox="0 0 190 600" width="190" height="600">
<defs>
<linearGradient id="red" x1="0" y1="0" x2="1" y2="0"><stop offset="0" stop-color="#a8341f"/><stop offset="0.5" stop-color="#d6543c"/><stop offset="1" stop-color="#a8341f"/></linearGradient>
<linearGradient id="steel" x1="0" y1="0" x2="1" y2="0"><stop offset="0" stop-color="#828891"/><stop offset="0.5" stop-color="#c9ced3"/><stop offset="1" stop-color="#828891"/></linearGradient>
<radialGradient id="rdome" cx="0.36" cy="0.3" r="0.9"><stop offset="0" stop-color="#d6543c"/><stop offset="1" stop-color="#85291a"/></radialGradient>
<linearGradient id="glass" x1="0" y1="0" x2="1" y2="1"><stop offset="0" stop-color="#c4d2da"/><stop offset="1" stop-color="#7c8b96"/></linearGradient>
</defs>
<line x1="0" y1="560" x2="190" y2="560" stroke="#b4b6b3" stroke-width="2"/>
<path d="M 142 290 L 142 210 Q 142 204 136 204" fill="none" stroke="#6a7079" stroke-width="5"/><path d="M 142 290 L 144 522" fill="none" stroke="url(#steel)" stroke-width="5"/><rect x="137" y="410" width="10" height="6" fill="#5a6066"/>
<path d="M 42 560 C 48 502 58 320 62 250 L 64 150 Q 95 143 126 150 L 128 250 C 132 320 142 502 148 560 Z" fill="url(#red)" stroke="#5e1c12" stroke-width="1.5"/>
<line x1="62" y1="370" x2="128" y2="370" stroke="#7a2418" stroke-width="1"/>
<rect x="56" y="138" width="80" height="11" rx="3" fill="url(#steel)" stroke="#5f625e" stroke-width="1.5"/>
<path d="M 60 140 Q 60 108 96 102 Q 132 108 132 140 Z" fill="url(#rdome)" stroke="#5e1c12" stroke-width="1.5"/>
<ellipse cx="80" cy="120" rx="14" ry="5" fill="#ffffff" opacity="0.16"/>
<g><rect x="74" y="196" width="38" height="54" rx="2" fill="#e8e8e2" stroke="#7e817c" stroke-width="1.5"/><rect x="78" y="200" width="30" height="46" fill="url(#glass)"/><g stroke="#e8e8e2" stroke-width="2.2"><line x1="93" y1="200" x2="93" y2="246"/><line x1="78" y1="223" x2="108" y2="223"/></g></g>
<g><rect x="74" y="296" width="38" height="54" rx="2" fill="#e8e8e2" stroke="#7e817c" stroke-width="1.5"/><rect x="78" y="300" width="30" height="46" fill="url(#glass)"/><g stroke="#e8e8e2" stroke-width="2.2"><line x1="93" y1="300" x2="93" y2="346"/><line x1="78" y1="323" x2="108" y2="323"/></g></g>
<g><rect x="78" y="486" width="40" height="74" rx="3" fill="url(#steel)" stroke="#5f625e" stroke-width="1.5"/><rect x="84" y="492" width="28" height="68" fill="#b1402a"/><line x1="98" y1="492" x2="98" y2="560" stroke="#7a1f16" stroke-width="1.2"/></g>
<path d="M 38 560 L 48 542 Q 86 548 96 544 Q 136 548 152 542 L 152 560 Z" fill="url(#steel)" stroke="#5f625e" stroke-width="1.5"/>
</svg>
