<svg xmlns="http://www.w3.org/2000/svg" viewBox="0 0 190 600" width="190" height="600">
<defs>
<linearGradient id="white" x1="0" y1="0" x2="1" y2="0"><stop offset="0" stop-color="#a9aca8"/><stop offset="0.5" stop-color="#d9dad4"/><stop offset="1" stop-color="#a9aca8"/></linearGradient>
<linearGradient id="steel" x1="0" y1="0" x2="1" y2="0"><stop offset="0" stop-color="#828891"/><stop offset="0.5" stop-color="#c9ced3"/><stop offset="1" stop-color="#828891"/></linearGradient>
<linearGradient id="cone" x1="0" y1="0" x2="1" y2="0"><stop offset="0" stop-color="#4c535e"/><stop offset="0.5" stop-color="#79828f"/><stop offset="1" stop-color="#454c56"/></linearGradient>
<linearGradient id="glass" x1="0" y1="0" x2="1" y2="1"><stop offset="0" stop-color="#c4d2da"/><stop offset="1" stop-color="#7c8b96"/></linearGradient>
</defs>
<line x1="0" y1="560" x2="190" y2="560" stroke="#b4b6b3" stroke-width="2"/>
<path d="M 142 290 L 142 200 Q 142 194 136 194" fill="none" stroke="#6a7079" stroke-width="5"/><path d="M 142 290 L 144 522" fill="none" stroke="url(#steel)" stroke-width="5"/><rect x="137" y="410" width="10" height="6" fill="#5a6066"/>
<!-- grey cylinder -->
<path d="M 42 560 C 48 502 58 320 62 250 L 64 150 Q 95 144 126 150 L 128 250 C 132 320 142 502 148 560 Z" fill="url(#white)" stroke="#5f625e" stroke-width="1.5"/>
<line x1="62" y1="370" x2="128" y2="370" stroke="#7d807c" stroke-width="1"/>
<!-- dark conical cap + deck -->
<rect x="56" y="140" width="80" height="11" rx="3" fill="url(#steel)" stroke="#5f625e" stroke-width="1.5"/>
<path d="M 60 140 L 96 86 L 132 140 Z" fill="url(#cone)" stroke="#3a414b" stroke-width="1.5"/>
<circle cx="96" cy="86" r="3" fill="#787e86"/>
<g><rect x="74" y="200" width="38" height="54" rx="2" fill="#e8e8e2" stroke="#7e817c" stroke-width="1.5"/><rect x="78" y="204" width="30" height="46" fill="url(#glass)"/><g stroke="#e8e8e2" stroke-width="2.2"><line x1="93" y1="204" x2="93" y2="250"/><line x1="78" y1="227" x2="108" y2="227"/></g></g>
<g><rect x="74" y="300" width="38" height="54" rx="2" fill="#e8e8e2" stroke="#7e817c" stroke-width="1.5"/><rect x="78" y="304" width="30" height="46" fill="url(#glass)"/><g stroke="#e8e8e2" stroke-width="2.2"><line x1="93" y1="304" x2="93" y2="350"/><line x1="78" y1="327" x2="108" y2="327"/></g></g>
<g><rect x="78" y="486" width="40" height="74" rx="3" fill="url(#steel)" stroke="#5f625e" stroke-width="1.5"/><rect x="84" y="492" width="28" height="68" fill="#465062"/><line x1="98" y1="492" x2="98" y2="560" stroke="#2e3540" stroke-width="1.2"/></g>
<path d="M 38 560 L 48 542 Q 86 548 96 544 Q 136 548 152 542 L 152 560 Z" fill="url(#steel)" stroke="#5f625e" stroke-width="1.5"/>
</svg>
