<svg xmlns="http://www.w3.org/2000/svg" viewBox="0 0 250 600" width="250" height="600">
<defs>
<linearGradient id="white" x1="0" y1="0" x2="1" y2="0"><stop offset="0" stop-color="#a9aca8"/><stop offset="0.5" stop-color="#d9dad4"/><stop offset="1" stop-color="#a9aca8"/></linearGradient>
<linearGradient id="steel" x1="0" y1="0" x2="1" y2="0"><stop offset="0" stop-color="#828891"/><stop offset="0.5" stop-color="#c9ced3"/><stop offset="1" stop-color="#828891"/></linearGradient>
<linearGradient id="dome" x1="0" y1="0" x2="1" y2="0"><stop offset="0" stop-color="#8b94a0"/><stop offset="0.5" stop-color="#c2cad4"/><stop offset="1" stop-color="#828b98"/></linearGradient>
<linearGradient id="glass" x1="0" y1="0" x2="1" y2="1"><stop offset="0" stop-color="#c4d2da"/><stop offset="1" stop-color="#7c8b96"/></linearGradient>
</defs>
<line x1="0" y1="560" x2="250" y2="560" stroke="#b4b6b3" stroke-width="2"/>
<!-- stout grey tower -->
<path d="M 56 560 C 62 502 74 360 78 300 L 80 172 Q 128 164 176 172 L 178 300 C 182 360 194 502 200 560 Z" fill="url(#white)" stroke="#5f625e" stroke-width="1.5"/>
<line x1="80" y1="400" x2="176" y2="400" stroke="#7d807c" stroke-width="1"/>
<rect x="74" y="158" width="108" height="13" rx="3" fill="url(#steel)" stroke="#5f625e" stroke-width="1.5"/>
<path d="M 78 160 Q 128 124 178 160 Z" fill="url(#dome)" stroke="#444b57" stroke-width="1.5"/>
<ellipse cx="106" cy="142" rx="22" ry="7" fill="#ffffff" opacity="0.18"/>
<line x1="128" y1="128" x2="128" y2="104" stroke="#6a7079" stroke-width="2.2"/><circle cx="128" cy="103" r="2.4" fill="#787e86"/>
<!-- two projecting bays -->
<g>
<path d="M 48 234 L 46 300 C 50 312 84 312 88 300 L 86 234 Z" fill="url(#white)" stroke="#5f625e" stroke-width="1.5"/>
<path d="M 46 236 Q 66 218 88 236 Z" fill="url(#steel)" stroke="#5f625e" stroke-width="1.2"/>
<rect x="54" y="250" width="26" height="44" rx="2" fill="#e8e8e2" stroke="#7e817c" stroke-width="1.4"/><rect x="58" y="254" width="18" height="36" fill="url(#glass)"/><line x1="58" y1="271" x2="76" y2="271" stroke="#e8e8e2" stroke-width="2"/></g>
<g>
<path d="M 162 234 L 160 300 C 164 312 198 312 202 300 L 200 234 Z" fill="url(#white)" stroke="#5f625e" stroke-width="1.5"/>
<path d="M 160 236 Q 180 218 202 236 Z" fill="url(#steel)" stroke="#5f625e" stroke-width="1.2"/>
<rect x="168" y="250" width="26" height="44" rx="2" fill="#e8e8e2" stroke="#7e817c" stroke-width="1.4"/><rect x="172" y="254" width="18" height="36" fill="url(#glass)"/><line x1="172" y1="271" x2="190" y2="271" stroke="#e8e8e2" stroke-width="2"/></g>
<g><rect x="108" y="206" width="40" height="56" rx="2" fill="#e8e8e2" stroke="#7e817c" stroke-width="1.5"/><rect x="112" y="210" width="32" height="48" fill="url(#glass)"/><g stroke="#e8e8e2" stroke-width="2.2"><line x1="128" y1="210" x2="128" y2="258"/><line x1="112" y1="234" x2="144" y2="234"/></g></g>
<g><rect x="104" y="486" width="48" height="74" rx="3" fill="url(#steel)" stroke="#5f625e" stroke-width="1.5"/><rect x="110" y="492" width="36" height="68" fill="#465062"/><line x1="128" y1="492" x2="128" y2="560" stroke="#2e3540" stroke-width="1.2"/></g>
<path d="M 52 560 L 62 542 Q 100 548 128 544 Q 168 548 200 542 L 204 560 Z" fill="url(#steel)" stroke="#5f625e" stroke-width="1.5"/>
</svg>
