<?xml version="1.0" encoding="UTF-8"?>
<svg id="Layer_1" xmlns="http://www.w3.org/2000/svg" xmlns:xlink="http://www.w3.org/1999/xlink" version="1.1" viewBox="0 0 1161.33 538.63">
  <!-- Generator: Adobe Illustrator 30.5.1, SVG Export Plug-In . SVG Version: 2.1.4 Build 3)  -->
  <defs>
    <style>
      .st0 {
        fill: #f3f4f5;
      }

      .st1 {
        fill: url(#linear-gradient2);
      }

      .st2 {
        fill: url(#linear-gradient1);
      }

      .st3 {
        fill: url(#linear-gradient9);
      }

      .st4 {
        fill: url(#linear-gradient3);
      }

      .st5 {
        fill: url(#linear-gradient6);
      }

      .st6 {
        fill: url(#linear-gradient8);
      }

      .st7 {
        fill: url(#linear-gradient7);
      }

      .st8 {
        fill: url(#linear-gradient5);
      }

      .st9 {
        fill: url(#linear-gradient4);
      }

      .st10 {
        fill: #f074a3;
      }

      .st11 {
        fill: #ebebeb;
      }

      .st12 {
        fill: url(#linear-gradient13);
      }

      .st12, .st13, .st14, .st15, .st16 {
        stroke: #fff;
        stroke-miterlimit: 10;
        stroke-width: .24px;
      }

      .st13 {
        fill: url(#linear-gradient11);
      }

      .st14 {
        fill: url(#linear-gradient10);
      }

      .st15 {
        fill: url(#linear-gradient12);
      }

      .st16 {
        fill: url(#linear-gradient14);
      }

      .st17 {
        fill: url(#linear-gradient);
      }

      .st18 {
        fill: #808184;
      }

      .st19 {
        fill: #c7c8ca;
      }

      .st20 {
        fill: #e74280;
      }

      .st21 {
        fill: #a4a5a7;
      }

      .st22 {
        fill: #d9dadb;
      }

      .st23 {
        fill: #535254;
      }

      .st24 {
        fill: #919396;
      }

      .st25 {
        fill: #ca2e6a;
      }
    </style>
    <linearGradient id="linear-gradient" x1="693.42" y1="287.96" x2="792.35" y2="592.74" gradientUnits="userSpaceOnUse">
      <stop offset="0" stop-color="#394fa1"/>
      <stop offset="1" stop-color="#2db8e5"/>
    </linearGradient>
    <linearGradient id="linear-gradient1" x1="699.63" y1="395.7" x2="699.63" y2="535.53" xlink:href="#linear-gradient"/>
    <linearGradient id="linear-gradient2" x1="749.05" y1="306" x2="591.57" y2="-31.19" xlink:href="#linear-gradient"/>
    <linearGradient id="linear-gradient3" x1="723.02" y1="272.52" x2="821.94" y2="577.3" xlink:href="#linear-gradient"/>
    <linearGradient id="linear-gradient4" x1="1277.75" y1="146.11" x2="958.08" y2="259.84" gradientUnits="userSpaceOnUse">
      <stop offset="0" stop-color="#fff"/>
      <stop offset="1" stop-color="#000"/>
    </linearGradient>
    <linearGradient id="linear-gradient5" x1="-2.86" y1="-268.7" x2="218.76" y2="309.86" xlink:href="#linear-gradient4"/>
    <linearGradient id="linear-gradient6" x1="266.97" y1="444.37" x2="214.34" y2="-366.92" xlink:href="#linear-gradient"/>
    <linearGradient id="linear-gradient7" x1="726.21" y1="263.43" x2="659.58" y2="166.52" gradientUnits="userSpaceOnUse">
      <stop offset="0" stop-color="#f45197"/>
      <stop offset="1" stop-color="#af3577"/>
    </linearGradient>
    <linearGradient id="linear-gradient8" x1="405.77" y1="43.64" x2="445.3" y2="456.46" gradientUnits="userSpaceOnUse">
      <stop offset="0" stop-color="#e33770"/>
      <stop offset="1" stop-color="#af3577"/>
    </linearGradient>
    <linearGradient id="linear-gradient9" x1="550.07" y1="702.86" x2="1148.37" y2="20.07" xlink:href="#linear-gradient8"/>
    <linearGradient id="linear-gradient10" x1="630.21" y1="20.19" x2="630.21" y2="70.28" xlink:href="#linear-gradient"/>
    <linearGradient id="linear-gradient11" x1="602.43" y1="66.13" x2="602.43" y2="117.71" xlink:href="#linear-gradient"/>
    <linearGradient id="linear-gradient12" x1="574.65" y1="112.07" x2="574.65" y2="165.13" xlink:href="#linear-gradient"/>
    <linearGradient id="linear-gradient13" x1="546.88" y1="158.01" x2="546.88" y2="212.55" xlink:href="#linear-gradient"/>
    <linearGradient id="linear-gradient14" x1="519.1" y1="203.95" x2="519.1" y2="259.97" xlink:href="#linear-gradient"/>
  </defs>
  <polygon class="st17" points="447.91 495.75 450.1 436.55 935.52 69.63 987.31 497.95 447.91 495.75"/>
  <polygon class="st2" points="955.76 385.71 499.38 385.71 432.12 436.55 429.93 495.75 969.33 497.95 955.76 385.71"/>
  <polygon class="st1" points="909.21 11.7 406.24 12.44 465.98 387.71 951.41 51.48 909.21 11.7"/>
  <polygon class="st4" points="917.55 69.63 499.38 385.71 955.76 385.71 917.55 69.63"/>
  <g>
    <g>
      <rect class="st19" x="56.92" y="493.74" width="129.73" height="22.55"/>
      <rect class="st0" x="56.92" y="499.09" width="129.73" height="3.87"/>
      <rect class="st21" x="56.92" y="508.2" width="129.73" height="3.87"/>
    </g>
    <g>
      <path class="st23" d="M66.48,505.02c0,1.46-1.19,2.65-2.65,2.65s-2.65-1.18-2.65-2.65,1.19-2.65,2.65-2.65,2.65,1.18,2.65,2.65Z"/>
      <path class="st23" d="M82.2,505.02c0,1.46-1.19,2.65-2.65,2.65s-2.65-1.18-2.65-2.65,1.19-2.65,2.65-2.65,2.65,1.18,2.65,2.65Z"/>
      <path class="st23" d="M97.93,505.02c0,1.46-1.19,2.65-2.65,2.65s-2.65-1.19-2.65-2.65,1.19-2.65,2.65-2.65,2.65,1.18,2.65,2.65Z"/>
      <path class="st23" d="M113.65,505.02c0,1.46-1.19,2.65-2.65,2.65s-2.65-1.19-2.65-2.65,1.19-2.65,2.65-2.65,2.65,1.18,2.65,2.65Z"/>
      <path class="st23" d="M129.37,505.02c0,1.46-1.19,2.65-2.65,2.65s-2.65-1.19-2.65-2.65,1.18-2.65,2.65-2.65,2.65,1.18,2.65,2.65Z"/>
      <path class="st23" d="M145.09,505.02c0,1.46-1.19,2.65-2.65,2.65s-2.65-1.19-2.65-2.65,1.18-2.65,2.65-2.65,2.65,1.18,2.65,2.65Z"/>
      <path class="st23" d="M160.81,505.02c0,1.46-1.19,2.65-2.65,2.65s-2.65-1.19-2.65-2.65,1.18-2.65,2.65-2.65,2.65,1.18,2.65,2.65Z"/>
    </g>
    <g>
      <g>
        <path class="st23" d="M74.84,497.68c0,1.46-1.19,2.64-2.65,2.64s-2.65-1.18-2.65-2.64,1.19-2.66,2.65-2.66,2.65,1.19,2.65,2.66Z"/>
        <path class="st23" d="M90.56,497.68c0,1.46-1.19,2.64-2.65,2.64s-2.65-1.18-2.65-2.64,1.19-2.66,2.65-2.66,2.65,1.19,2.65,2.66Z"/>
        <path class="st23" d="M106.29,497.68c0,1.46-1.19,2.64-2.65,2.64s-2.65-1.18-2.65-2.64,1.19-2.66,2.65-2.66,2.65,1.19,2.65,2.66Z"/>
        <path class="st23" d="M122.01,497.68c0,1.46-1.19,2.64-2.65,2.64s-2.65-1.18-2.65-2.64,1.19-2.66,2.65-2.66,2.65,1.19,2.65,2.66Z"/>
        <path class="st23" d="M137.73,497.68c0,1.46-1.19,2.64-2.65,2.64s-2.65-1.18-2.65-2.64,1.19-2.66,2.65-2.66,2.65,1.19,2.65,2.66Z"/>
        <path class="st23" d="M153.45,497.68c0,1.46-1.19,2.64-2.65,2.64s-2.65-1.18-2.65-2.64,1.19-2.66,2.65-2.66,2.65,1.19,2.65,2.66Z"/>
        <path class="st23" d="M169.17,497.68c0,1.46-1.19,2.64-2.65,2.64s-2.65-1.18-2.65-2.64,1.19-2.66,2.65-2.66,2.65,1.19,2.65,2.66Z"/>
      </g>
      <g>
        <path class="st23" d="M74.84,512.36c0,1.46-1.19,2.65-2.65,2.65s-2.65-1.18-2.65-2.65,1.19-2.65,2.65-2.65,2.65,1.18,2.65,2.65Z"/>
        <path class="st23" d="M90.56,512.36c0,1.46-1.19,2.65-2.65,2.65s-2.65-1.18-2.65-2.65,1.19-2.65,2.65-2.65,2.65,1.18,2.65,2.65Z"/>
        <path class="st23" d="M106.29,512.36c0,1.46-1.19,2.65-2.65,2.65s-2.65-1.18-2.65-2.65,1.19-2.65,2.65-2.65,2.65,1.18,2.65,2.65Z"/>
        <path class="st23" d="M122.01,512.36c0,1.46-1.19,2.65-2.65,2.65s-2.65-1.19-2.65-2.65,1.19-2.65,2.65-2.65,2.65,1.18,2.65,2.65Z"/>
        <path class="st23" d="M137.73,512.36c0,1.46-1.19,2.65-2.65,2.65s-2.65-1.19-2.65-2.65,1.19-2.65,2.65-2.65,2.65,1.18,2.65,2.65Z"/>
        <path class="st23" d="M153.45,512.36c0,1.46-1.19,2.65-2.65,2.65s-2.65-1.19-2.65-2.65,1.19-2.65,2.65-2.65,2.65,1.18,2.65,2.65Z"/>
        <path class="st23" d="M169.17,512.36c0,1.46-1.19,2.65-2.65,2.65s-2.65-1.19-2.65-2.65,1.19-2.65,2.65-2.65,2.65,1.18,2.65,2.65Z"/>
      </g>
    </g>
    <path class="st23" d="M58.57,505.03c0,6.23-.72,11.29-1.62,11.29s-1.62-5.05-1.62-11.29.72-11.28,1.62-11.28,1.62,5.05,1.62,11.28Z"/>
  </g>
  <path class="st9" d="M1008.34,481.02l152.98-38.86S1002.79,95.53,987.31,52.98c-15.49-42.55-60.84-36.54-60.84-36.54l81.88,464.58Z"/>
  <path class="st8" d="M379.65,17.54s-135.22-1.65-204.69,61.41C105.48,142.01,16.61,392.79,4.87,421.2c-24.72,59.82,52.74,74.55,52.74,74.55h425.38L379.65,17.54Z"/>
  <polygon class="st5" points="388.7 22.14 320.73 278.68 57.61 495.75 482.99 495.75 388.7 22.14"/>
  <g>
    <polygon class="st0" points="392.24 435.88 565.06 435.88 580.86 452.04 583.45 460.15 574.31 471.82 353.27 471.18 392.24 435.88"/>
    <polygon class="st11" points="190.01 486.63 392.24 435.88 353.27 471.18 190.01 486.63"/>
    <polygon class="st22" points="326.79 529.28 326.82 529.31 174.56 524.87 190.01 486.63 353.27 471.18 326.79 529.28"/>
    <polygon class="st19" points="326.82 529.31 326.79 529.28 353.27 471.18 574.31 471.82 528.81 529.93 338.56 529.65 326.82 529.31"/>
    <polygon class="st18" points="326.82 529.31 335.24 537.72 174.56 524.87 326.82 529.31"/>
    <polygon class="st24" points="338.56 529.65 528.81 529.93 522.41 538.11 340.03 538.11 335.24 537.72 326.82 529.31 338.56 529.65"/>
    <polygon class="st10" points="650.37 436.6 591.82 473.7 569.56 436.6 650.37 436.6"/>
    <polygon class="st25" points="467.53 538.63 503.57 502.58 562.93 502.58 526.89 538.63 467.53 538.63"/>
    <polygon class="st20" points="569.56 436.6 591.82 473.7 562.93 502.58 503.57 502.58 569.56 436.6"/>
  </g>
  <g>
    <polygon class="st0" points="943.31 441.81 1089.28 441.81 1102.62 455.46 1104.81 462.31 1097.09 472.17 910.39 471.63 943.31 441.81"/>
    <polygon class="st11" points="772.5 484.67 943.31 441.81 910.39 471.63 772.5 484.67"/>
    <polygon class="st22" points="888.03 520.7 888.05 520.72 759.45 516.97 772.5 484.67 910.39 471.63 888.03 520.7"/>
    <polygon class="st19" points="888.05 520.72 888.03 520.7 910.39 471.63 1097.09 472.17 1058.66 521.25 897.97 521.01 888.05 520.72"/>
    <polygon class="st18" points="888.05 520.72 895.16 527.83 759.45 516.97 888.05 520.72"/>
    <polygon class="st24" points="897.97 521.01 1058.66 521.25 1053.25 528.15 899.21 528.15 895.16 527.83 888.05 520.72 897.97 521.01"/>
    <polygon class="st10" points="1161.33 442.41 1111.88 473.75 1093.08 442.41 1161.33 442.41"/>
    <polygon class="st25" points="1006.9 528.59 1037.34 498.15 1087.48 498.15 1057.04 528.59 1006.9 528.59"/>
    <polygon class="st20" points="1093.08 442.41 1111.88 473.75 1087.48 498.15 1037.34 498.15 1093.08 442.41"/>
  </g>
  <polygon class="st7" points="909.21 11.7 930.3 81.34 478.6 421.2 446.96 331.69 909.21 11.7"/>
  <polygon class="st6" points="364.96 8.25 417.59 8.25 503.85 443.01 486.31 505.88 395.66 505.88 385.42 456.17 429.29 406.46 364.96 8.25"/>
  <polygon class="st3" points="879.68 0 932.31 0 1026.5 443.01 1008.96 505.88 918.31 505.88 908.08 456.17 951.94 406.46 879.68 0"/>
  <g>
    <path class="st0" d="M529.52,348.5c9.25,2.07,18.43-3.01,21.77-11.57l-36.53-8.18c-.63,9.17,5.51,17.68,14.76,19.75Z"/>
    <path class="st0" d="M516.03,323.1l36.53,8.18c.63-9.17-5.51-17.68-14.76-19.75-9.25-2.07-18.43,3.01-21.77,11.57Z"/>
  </g>
  <g>
    <path class="st0" d="M957.51,479.21c5.51,5.16,13.87,5.39,19.63.86l-21.78-20.39c-4.14,6.05-3.36,14.37,2.16,19.53Z"/>
    <path class="st0" d="M958.5,456.31l21.78,20.39c4.14-6.05,3.36-14.37-2.15-19.53-5.51-5.16-13.87-5.39-19.63-.86Z"/>
  </g>
  <g>
    <path class="st0" d="M435.34,469.78c.8,7.51,6.97,13.14,14.29,13.48l-3.15-29.67c-7.08,1.87-11.94,8.68-11.14,16.19Z"/>
    <path class="st0" d="M451.06,453.11l3.15,29.67c7.08-1.87,11.94-8.68,11.14-16.19-.8-7.51-6.97-13.14-14.29-13.48Z"/>
  </g>
  <g>
    <path class="st0" d="M686.54,195c-8.65,3.87-12.96,13.44-10.52,22.3l34.16-15.31c-4.99-7.72-14.99-10.86-23.64-6.99Z"/>
    <path class="st0" d="M712.55,207.27l-34.16,15.31c4.99,7.72,15,10.86,23.64,6.99,8.65-3.87,12.97-13.43,10.52-22.3Z"/>
  </g>
  <g>
    <path class="st0" d="M832.5,93.83c-1.27,9.39,4.56,18.1,13.38,20.7l5.04-37.1c-9.19.16-17.14,7-18.42,16.39Z"/>
    <path class="st0" d="M856.65,78.22l-5.04,37.09c9.19-.16,17.14-7,18.42-16.39,1.27-9.39-4.56-18.1-13.38-20.71Z"/>
  </g>
  <g>
    <path class="st14" d="M812.42,42.2c0,5.95-4.6,10.78-10.28,10.78h-343.85c-5.67,0-10.27-4.83-10.27-10.78h0c0-5.96,4.6-10.78,10.27-10.78h343.85c5.68,0,10.28,4.83,10.28,10.78h0Z"/>
    <path class="st13" d="M749.48,87.83c0,5.95-4.6,10.78-10.28,10.78h-273.54c-5.67,0-10.27-4.83-10.27-10.78h0c0-5.96,4.6-10.78,10.27-10.78h273.54c5.68,0,10.28,4.83,10.28,10.78h0Z"/>
    <path class="st15" d="M686.54,133.45c0,5.95-4.6,10.78-10.28,10.78h-203.22c-5.67,0-10.28-4.83-10.28-10.78h0c0-5.96,4.6-10.78,10.28-10.78h203.22c5.68,0,10.28,4.83,10.28,10.78h0Z"/>
    <path class="st12" d="M623.61,179.08c0,5.95-4.6,10.78-10.28,10.78h-132.91c-5.67,0-10.28-4.83-10.28-10.78h0c0-5.96,4.6-10.78,10.28-10.78h132.91c5.68,0,10.28,4.83,10.28,10.78h0Z"/>
    <path class="st16" d="M560.67,224.71c0,5.95-4.6,10.78-10.28,10.78h-62.59c-5.67,0-10.28-4.83-10.28-10.78h0c0-5.96,4.6-10.78,10.28-10.78h62.59c5.68,0,10.28,4.83,10.28,10.78h0Z"/>
  </g>
</svg>