<?xml version="1.0" encoding="UTF-8"?>
<svg id="Layer_1" xmlns="http://www.w3.org/2000/svg" version="1.1" viewBox="0 0 292.07 52.2">
  <!-- Generator: Adobe Illustrator 30.5.1, SVG Export Plug-In . SVG Version: 2.1.4 Build 3)  -->
  <defs>
    <style>
      .st0 {
        fill: #1bbced;
      }
    </style>
  </defs>
  <g>
    <path class="st0" d="M.45,4.11V.28h39.99v8.85L12.6,42.07h27.24v9.23H0v-8.93L27.69,9.51H5.85C2.93,9.51.45,7.04.45,4.11Z"/>
    <path class="st0" d="M51.62,21.97h-9.98c1.2-7.35,6.38-10.95,15.53-10.95,10.95,0,16.51,3.6,16.73,10.95v13.5c0,10.95-6.6,15.83-17.33,16.58-9.53.75-16.13-3.68-16.13-12.45.23-9.53,7.13-12.08,17.18-13.05,4.28-.53,6.45-1.8,6.45-3.98-.23-2.25-2.33-3.38-6.45-3.38-3.53,0-5.48.9-6,2.78ZM64.23,35.02v-3.68c-2.33.97-5.03,1.8-7.95,2.4-3.98.75-6,2.63-6,5.55.22,3.15,1.88,4.65,5.03,4.65,5.55,0,8.93-3.3,8.93-8.93Z"/>
    <path class="st0" d="M85.08,25.94v25.36h-10.13v-23.33c0-11.33,5.7-16.96,17.03-16.96,5.1,0,9,1.13,11.85,3.38,2.85-2.18,6.75-3.23,11.85-3.23,11.33,0,16.96,5.63,16.88,16.96v23.33h-5.18c-3.3-.23-4.95-1.8-4.95-4.95v-20.41c-.22-4.13-2.48-6.15-6.9-6.15s-6.68,2.03-6.75,6.15v25.21h-10.05v-25.36c-.23-4.13-2.48-6.15-6.9-6.15s-6.68,2.03-6.75,6.15Z"/>
    <path class="st0" d="M144.58,17.16c2.55-4.13,6.3-6.15,11.25-6.15,10.58.38,15.83,7.28,15.83,20.78s-6.15,19.88-18.46,20.11c-12.38.07-18.61-5.85-18.61-17.78V.28h5.03c3.3,0,4.95,1.73,4.95,5.03v11.85ZM144.58,31.34c-.08,8.03,2.63,12.08,8.33,12.08s8.55-4.05,8.55-12.08c-.22-7.65-3-11.4-8.4-11.4s-8.18,3.75-8.48,11.4Z"/>
    <path class="st0" d="M208.21,31.64c0,13.66-6.08,20.56-18.08,20.56s-18.01-6.9-18.01-20.56,6-20.63,18.01-20.63,18.08,6.83,18.08,20.63ZM182.25,31.64c.08,7.73,2.7,11.63,7.8,11.63s7.65-4.05,7.73-11.93c0-7.73-2.55-11.55-7.65-11.55s-7.88,3.98-7.88,11.85Z"/>
    <path class="st0" d="M209.26,30.82c.3-12.83,7.13-19.21,20.41-19.21h1.43v10.35h-3.38c-5.55,0-8.33,2.93-8.33,8.7v20.63h-10.13v-20.48Z"/>
    <path class="st0" d="M238.67.28c3.3,0,4.88,1.65,4.8,4.88v2.93h-9.98V.28h5.18ZM238.67,11.61c3.23,0,4.8,1.58,4.8,4.8v34.89h-9.98V11.61h5.18Z"/>
    <path class="st0" d="M274.08,51.3c-3.3-.22-4.95-1.8-4.95-4.95v-20.41c-.23-4.13-2.48-6.15-6.9-6.15s-6.68,2.03-6.75,6.15v25.36h-10.13v-23.33c0-11.33,5.7-16.96,17.03-16.96s16.88,5.63,16.81,16.96v23.33h-5.1Z"/>
  </g>
  <path class="st0" d="M292.07,7.7c0,4.37-3.43,7.79-7.89,7.79s-7.93-3.43-7.93-7.79,3.52-7.7,7.93-7.7,7.89,3.43,7.89,7.7ZM278.22,7.7c0,3.43,2.54,6.15,6.01,6.15s5.87-2.72,5.87-6.1-2.49-6.2-5.92-6.2-5.96,2.77-5.96,6.15ZM282.96,11.74h-1.78v-7.7c.71-.14,1.69-.23,2.96-.23,1.46,0,2.11.23,2.68.56.42.33.75.94.75,1.69,0,.84-.66,1.5-1.6,1.78v.09c.75.28,1.17.84,1.41,1.88.23,1.17.38,1.64.56,1.92h-1.93c-.23-.28-.38-.99-.61-1.88-.14-.85-.61-1.22-1.6-1.22h-.85v3.1ZM283,7.37h.85c.99,0,1.78-.33,1.78-1.13,0-.7-.52-1.17-1.64-1.17-.47,0-.8.05-.99.09v2.21Z"/>
</svg>