<?xml version="1.0" encoding="UTF-8"?>
<svg id="Layer_1" xmlns="http://www.w3.org/2000/svg" xmlns:xlink="http://www.w3.org/1999/xlink" version="1.1" viewBox="0 0 399.3 244.87">
  <!-- Generator: Adobe Illustrator 30.5.1, SVG Export Plug-In . SVG Version: 2.1.4 Build 3)  -->
  <defs>
    <style>
      .st0 {
        opacity: .26;
      }

      .st0, .st1, .st2, .st3, .st4 {
        isolation: isolate;
      }

      .st1 {
        opacity: .35;
      }

      .st2 {
        opacity: .5;
      }

      .st2, .st3 {
        fill: #928876;
      }

      .st3 {
        opacity: .55;
      }

      .st5 {
        fill: #48423a;
      }

      .st6 {
        fill: #3a352d;
      }

      .st7 {
        fill: url(#linear-gradient);
      }

      .st8 {
        fill: #6e6656;
      }

      .st4 {
        fill: #fff;
        opacity: .4;
      }
    </style>
    <linearGradient id="linear-gradient" x1="487.82" y1="676.01" x2="488.52" y2="675.16" gradientTransform="translate(-179122.9206 90316.8457) scale(367.3044 -133.5652)" gradientUnits="userSpaceOnUse">
      <stop offset="0" stop-color="#fff" stop-opacity=".5"/>
      <stop offset=".55" stop-color="#fff" stop-opacity=".05"/>
      <stop offset="1" stop-color="#000" stop-opacity=".55"/>
    </linearGradient>
  </defs>
  <circle class="st4" cx="397.91" cy="83.48" r="1.39"/>
  <polyline class="st8" points="0 144.7 22.26 83.48 119.65 16.7 230.96 0 333.91 33.39 389.57 111.3 384 205.91 300.52 244.87 161.39 244.87 50.09 205.91 0 144.7"/>
  <polyline class="st0" points="0 144.7 22.26 83.48 119.65 16.7 230.96 0 333.91 33.39 389.57 111.3 384 205.91 300.52 244.87 161.39 244.87 50.09 205.91 0 144.7"/>
  <polygon class="st7" points="22.26 83.48 119.65 16.7 230.96 0 333.91 33.39 389.57 111.3 311.65 128 211.48 111.3 111.3 133.57 27.83 128 22.26 83.48"/>
  <polygon class="st5" points="105.74 72.35 166.96 50.09 211.48 72.35 205.91 116.87 155.83 139.13 105.74 116.87 94.61 89.04 105.74 72.35"/>
  <polygon class="st3" points="105.74 72.35 166.96 50.09 211.48 72.35 189.22 83.48 133.57 89.04 102.96 94.61 105.74 72.35"/>
  <polygon class="st5" points="244.87 83.48 294.96 72.35 322.78 105.74 300.52 144.7 250.43 144.7 230.96 111.3 244.87 83.48"/>
  <polygon class="st2" points="244.87 83.48 294.96 72.35 322.78 105.74 289.39 111.3 250.43 111.3 244.87 83.48"/>
  <polygon class="st6" points="50.09 161.39 89.04 150.26 105.74 178.09 77.91 194.78 44.52 183.65 50.09 161.39"/>
  <polyline class="st1" points="0 144.7 22.26 83.48 11.13 122.43 0 144.7"/>
</svg>