<?xml version="1.0" encoding="UTF-8"?>
<svg id="Layer_1" xmlns="http://www.w3.org/2000/svg" version="1.1" viewBox="20.97 205.66 523.52 416.53">
  <defs>
    <style>
      .st0 {
        fill: #231f20;
      }
      .st1 {
        fill: #6c2b3d;
      }
      .st2, .st3 {
        fill: #fff;
      }
      .st4 {
        fill: #f3b2db;
      }
      .st5, .st6, .st8 {
        fill: #ff4713;
      }
      .st9, .st10 {
        fill: #be3a26;
      }
      .st9, .st3 {
        isolation: isolate;
        opacity: .5;
      }
      .st7 {
        fill: none;
      }
    .kv0{fill:none;stroke:#BE3A26;stroke-width:4;stroke-linecap:round;stroke-miterlimit:10}</style>
  </defs>
  <path class="st4" d="M142.6,631.27c-.07,0-.14.02-.21.03-.07,0-.14.02-.21.03l.42-.06h0Z"/>
  <g>
    <path class="st2" d="M470.26,358.97c4.72-.8,8.54-4.67,13-6.78.38,3.69.13,7.65,1.23,11.25,4.1-2.78,8.6-7.46,13.51-6.78.5,3.67.35,7.75.32,11.6,1.95-1.78,4.93-2.94,6.75-5,2.04,4.42-.2,9.59,1.99,14.07,6.3-1.49,15.76-11.37,16.32.44,1.12-1.09,2.45-2.06,3.88-2.89,8.91-19.53,9.63-43.96-4.74-74.12,0,0-49.67,3.81-57.41,48.7,1.36-.51,2.75-.88,4.19-.99-.01,3.5.2,7.07.94,10.48v.02Z"/>
    <path class="st8" d="M417.48,442.7c20.81-2.47,88.56-21.26,109.78-67.82-1.44.83-2.77,1.8-3.88,2.89-.56-11.82-10.02-1.94-16.32-.44-2.18-4.47.06-9.65-1.99-14.07-1.81,2.07-4.79,3.22-6.75,5,.03-3.85.18-7.93-.32-11.6-4.9-.68-9.4,4-13.51,6.78-1.1-3.58-.84-7.55-1.23-11.25-4.46,2.1-8.29,5.98-13,6.78-.73-3.43-.95-6.98-.94-10.48-1.45.11-2.84.48-4.19.99-.4,2.31-.72,4.68-.88,7.21-3.35,51.73-72.44,78.53-72.44,78.53l-52.08,37.21s48.22-26.19,77.75-29.7v-.03Z"/>
  </g>
  <path class="st7 kv0" d="M340.05,470.66s48.22-26.19,77.75-29.7,153.67-39.88,105.05-141.93c0,0-54.94,4.18-58.28,55.9-3.35,51.73-72.44,78.53-72.44,78.53l-52.08,37.2h0Z"/>
  <g>
    <path class="st10" d="M385,521.46s-27.85,75.56-34.11,81.98c-7.13,7.31-17.44,8.5-27.48,3.13l.32.18c-10.04-5.36-14.79-14.58-12.68-24.58,1.86-8.78,46.33-75.45,46.33-75.45"/>
    <path class="st1" d="M385,521.46s-28.77,75.07-35.04,81.48c-7.1,7.28-15.49,7.25-25.47,1.98.06.03.1.05.16.09l-.32-.18c.06.03.1.05.16.09-9.92-5.35-14.29-12.15-12.19-22.09,1.86-8.78,45.07-76.12,45.07-76.12,0,0-44.48,66.68-46.33,75.45-2.11,9.94,2.59,19.12,12.52,24.49,9.99,5.26,20.22,4.07,27.32-3.22,6.26-6.42,34.11-81.98,34.11-81.98v.02Z"/>
  </g>
  <g>
    <path class="st10" d="M237.37,503.94s36.18,71.95,36.59,80.9c.47,10.21-5.7,18.54-16.48,22.21l.35-.11c-10.78,3.67-20.75.85-26.61-7.53-5.14-7.35-23.46-85.38-23.46-85.38"/>
    <path class="st1" d="M237.37,503.94s35.17,72.29,35.58,81.24c.47,10.16-5.29,16.28-15.95,19.95.06-.02.12-.03.17-.06l-.34.12c.06-.02.11-.04.17-.06-10.69,3.59-18.63,2.14-24.46-6.18-5.14-7.35-24.81-84.91-24.81-84.91,0,0,18.33,78.02,23.46,85.38,5.83,8.33,15.74,11.17,26.45,7.58,10.66-3.7,16.79-11.99,16.31-22.15-.41-8.95-36.59-80.9-36.59-80.9h0Z"/>
  </g>
  <ellipse class="st6 kv1" cx="288.27" cy="486.42" rx="122.09" ry="97.74"/>
  <path class="st9" d="M178.49,453.84c0-4.77.32-9.48.93-14.1-8.13,13.87-12.75,29.77-12.75,46.67,0,53.98,47.12,97.74,105.24,97.74,24.83,0,47.65-7.99,65.65-21.35-11.47,3.29-23.66,5.07-36.29,5.07-67.81,0-122.78-51.05-122.78-114.03h0Z"/>
  <g>
    <path class="st8" d="M257.13,520.22s-38.52,76.42-46.12,82.24c-8.68,6.63-20.26,6.1-30.91-1.43l.34.24c-10.64-7.51-15.02-18.27-11.67-28.65,2.94-9.11,59.09-73.08,59.09-73.08"/>
    <path class="st9" d="M185.8,599.95c.06.04.11.09.17.13l-.34-.24c.06.04.12.08.18.12-10.52-7.51-14.84-18.2-11.5-28.53,2.55-7.89,42.94-58.42,53.69-71.79l-.13-.09s-56.15,63.97-59.09,73.08c-3.33,10.33.99,21.01,11.5,28.53,8.25,5.76,17.06,7.32,24.63,4.62-6.16.53-12.79-1.41-19.1-5.82h0Z"/>
    <path class="st1" d="M257.13,520.22s-39.5,75.73-47.11,81.54c-8.63,6.59-17.98,5.1-28.54-2.31.06.04.11.09.17.13l-.34-.24c.06.04.12.08.18.12-10.52-7.49-14.7-15.56-11.37-25.89,2.94-9.11,57.76-74.02,57.76-74.02,0,0-56.15,63.97-59.09,73.08-3.33,10.33.98,21.02,11.5,28.53,10.59,7.41,22.1,7.9,30.73,1.3,7.61-5.82,46.12-82.24,46.12-82.24h-.01Z"/>
  </g>
  <path class="st4" d="M260.08,624.85c-.07,0-.14.01-.21.02s-.14.03-.21.04l.42-.06h0Z"/>
  <path class="st4" d="M259.78,622.79c-.07,0-.14.02-.21.03-.07,0-.14.02-.21.03l.42-.06h0Z"/>
  <g>
    <path class="st8" d="M361.26,502.64s51.08,68.66,52.87,78.07c2.05,10.72-3.62,20.84-15.11,27l.37-.2c-11.49,6.15-23.06,5.25-30.84-2.4-6.83-6.71-38.88-85.56-38.88-85.56"/>
    <path class="st9" d="M400.61,602.13c.06-.04.12-.06.19-.1l-.37.2c.06-.04.12-.07.18-.11-11.43,6.04-22.91,5.12-30.66-2.49-5.91-5.81-33.01-64.55-40.15-80.15l-.14.08s32.05,78.84,38.88,85.56c7.75,7.6,19.24,8.53,30.66,2.49,8.85-4.8,14.18-11.97,15.16-19.95-2.28,5.75-6.99,10.8-13.75,14.47h0Z"/>
    <path class="st1" d="M361.26,502.64s50.01,69.23,51.81,78.64c2.03,10.67-3.49,18.35-14.85,24.48.06-.04.12-.06.19-.1l-.37.2c.06-.04.12-.07.19-.1-11.4,6.05-20.5,6.18-28.24-1.43-6.83-6.7-40.32-84.79-40.32-84.79,0,0,32.05,78.84,38.88,85.56,7.75,7.6,19.24,8.53,30.66,2.49,11.36-6.16,16.97-16.22,14.93-26.89-1.8-9.4-52.87-78.07-52.87-78.07h0Z"/>
  </g>
  <path class="st5 kv2" d="M226.15,270.9s-4.27-30.6-29.28-54.92c0,0-39.29,29.08-29.95,75.1"/>
  <path class="st5 kv3" d="M77.57,309.42c-16.76,28.41-50.67,68.7-34.85,95.85,10.27,17.63,63.47,31.66,84.61,37.64,53.68,15.14,111.93-.19,134.67-51.13,22.74-50.93-.11-110.66-51.05-133.4-50.93-22.74-105.05,3-133.4,51.05h0Z"/>
  <path class="st9" d="M86.33,391.53c-23.47-39.9,4.45-90.51,25.97-120.11-13.15,9.89-24.66,22.82-33.6,37.97-16.76,28.41-50.67,68.7-34.85,95.85,10.27,17.63,63.47,31.66,84.61,37.64,9.82,2.77,19.79,4.51,29.67,5.21-27.14-11.69-56-29.68-71.8-56.54h0Z"/>
  <g>
    <path class="st0" d="M136.38,353.51c-5.87,13.14.02,28.55,13.17,34.42,13.14,5.87,28.56-.03,34.42-13.17,5.87-13.14-.02-28.55-13.17-34.42-13.14-5.87-28.56.03-34.42,13.17Z"/>
    <path class="st2" d="M143,349.33c-1.47,3.29,0,7.14,3.29,8.61s7.14,0,8.61-3.29c1.47-3.29,0-7.14-3.29-8.61s-7.14.01-8.61,3.29Z"/>
    <path class="st3" d="M165.88,383.33c-.49,1.09,0,2.38,1.1,2.87s2.38,0,2.87-1.1,0-2.38-1.1-2.87-2.38,0-2.87,1.1Z"/>
  </g>
  <g>
    <path class="st0" d="M78.3,316.3c-4.89,10.96.03,23.79,10.98,28.69,10.96,4.89,23.79-.03,28.69-10.98,4.89-10.96-.03-23.79-10.98-28.69-10.96-4.89-23.79.03-28.69,10.98Z"/>
    <path class="st2" d="M90.65,309.93c-1.22,2.74.01,5.95,2.74,7.17,2.74,1.22,5.95,0,7.17-2.74,1.22-2.74,0-5.95-2.74-7.17s-5.95,0-7.17,2.74Z"/>
  </g>
  <path class="st0" d="M32.47,389.33c-3.02,6.77.02,14.71,6.79,17.73,6.77,3.02,14.71,0,17.73-6.79,3.02-6.77-.02-14.71-6.79-17.73-6.77-3.02-14.71.02-17.73,6.79Z"/>
  <path class="st5 kv4" d="M216.11,273.48s22.92-25.84,61.25-32.99c0,0,18.56,51.4-18.62,88.44"/>
  <path class="st9" d="M252.13,320.85s28.04-32.41,15.18-59.83c0,0-25.3-2.56-42.66,19.76"/>
</svg>